<svg width="306" height="92" viewBox="0 0 306 92" fill="none" xmlns="http://www.w3.org/2000/svg">
<path d="M39.1087 84.5372C38.8557 84.5315 38.617 84.4673 38.3947 84.3465C36.1992 83.2109 31.0702 77.5318 29.5895 75.5279C29.5292 75.4503 29.4908 75.3621 29.4745 75.2654C29.4583 75.1676 29.4669 75.0718 29.5004 74.9788C29.5656 74.8552 29.6672 74.7871 29.8071 74.7747C30.2307 74.7268 30.6562 74.7009 31.0826 74.698C31.3538 74.6827 31.625 74.6798 31.8963 74.6904C32.1675 74.6999 32.4377 74.722 32.707 74.7574C32.9753 74.7929 33.2427 74.8399 33.5072 74.8993C33.7717 74.9596 34.0333 75.0315 34.2911 75.1159C34.5489 75.2002 34.8029 75.296 35.052 75.4034C35.3012 75.5116 35.5446 75.6305 35.7823 75.7608C36.0209 75.8911 36.2519 76.032 36.4771 76.1844C36.7013 76.3358 36.9189 76.4978 37.1287 76.6703C37.3386 76.8428 37.5399 77.0239 37.7325 77.2146C37.9261 77.4053 38.1091 77.6056 38.2835 77.8136C38.458 78.0206 38.6228 78.2362 38.7771 78.4595C38.9314 78.6828 39.0751 78.9128 39.2083 79.1495C39.3406 79.3862 39.4623 79.6286 39.5735 79.8769C39.6837 80.1241 39.7824 80.3771 39.8686 80.6339C39.9558 80.8908 40.0306 81.1514 40.0938 81.4159C40.1561 81.6795 40.2069 81.9459 40.2443 82.2152C40.3114 82.5611 40.3085 82.9081 40.2357 83.2531C40.1628 83.5981 40.0248 83.9162 39.8236 84.2056C39.6319 84.4174 39.3942 84.5286 39.1087 84.5372Z" fill="#82FF87"/>
<path d="M55.4924 20.0395C55.2029 20.051 54.9154 20.028 54.6318 19.9695C54.3472 19.9111 54.075 19.8191 53.8134 19.6926C53.5517 19.567 53.3093 19.4118 53.086 19.2259C52.8627 19.0409 52.6653 18.831 52.4937 18.5972C52.2906 18.2628 52.1248 17.911 51.9954 17.5421C51.8651 17.1731 51.775 16.7946 51.7252 16.4065C51.6744 16.0183 51.6648 15.6293 51.6954 15.2402C51.7261 14.8501 51.7961 14.4668 51.9072 14.0921C52.0347 13.773 52.2005 13.773 52.2647 13.773C52.3327 13.7567 52.4008 13.7567 52.4688 13.773C54.2667 15.0705 55.7636 16.6528 56.9605 18.5205C57.0544 18.6547 57.1119 18.8023 57.1321 18.9652C57.1532 19.1281 57.134 19.2863 57.0746 19.4396C56.9969 19.5853 56.8867 19.7022 56.7449 19.7894C56.6031 19.8756 56.4497 19.9207 56.2839 19.9245C56.0233 19.983 55.7597 20.0213 55.4924 20.0395Z" fill="#C8FAC8"/>
<path d="M53.0429 40.6237C52.8896 40.6237 52.7746 40.4962 52.7362 40.2796C52.7295 40.1771 52.7295 40.0755 52.7362 39.973C52.3855 37.4554 51.684 35.0385 50.6308 32.7241L50.2484 31.8568C49.636 30.4653 49.2278 29.5463 49.6744 28.7298C49.8018 28.5669 49.9475 28.4222 50.1123 28.2957C50.2762 28.1701 50.4544 28.0666 50.6451 27.9861C50.8368 27.9056 51.0342 27.851 51.2393 27.8213C51.4444 27.7916 51.6504 27.7878 51.8565 27.8108C52.5072 27.8079 53.1282 27.944 53.7195 28.22C54.995 28.8573 55.8115 30.2871 55.9649 32.4951C56.0137 33.1889 55.9984 33.8818 55.9179 34.5728C55.8384 35.2647 55.6946 35.9422 55.4886 36.6073C55.2825 37.2714 55.0161 37.9116 54.6912 38.5268C54.3654 39.1421 53.9869 39.7219 53.5527 40.2672C53.3112 40.5729 53.1196 40.6237 53.0429 40.6237Z" fill="#C8FAC8"/>
<path d="M24.5373 32.0351C24.3667 32.0533 24.1951 32.0571 24.0236 32.0456C23.8521 32.0341 23.6834 32.0092 23.5166 31.9689C23.3489 31.9287 23.187 31.8741 23.0298 31.806C22.8717 31.738 22.7212 31.6565 22.5775 31.5626C22.4337 31.4687 22.2986 31.3623 22.1731 31.2454C22.0475 31.1285 21.9335 31.001 21.829 30.864C21.7255 30.7269 21.6345 30.5822 21.5559 30.4299C21.4763 30.2775 21.4112 30.1194 21.3594 29.9555C21.1687 29.0106 22.3168 28.1049 23.6566 27.0709L23.8866 26.8926C25.6566 25.5749 27.1708 24.009 28.4291 22.1959C28.477 22.1106 28.5326 22.0291 28.5948 21.9534C28.6581 21.8671 28.7434 21.8202 28.8498 21.8135C28.914 21.8135 29.143 21.8135 29.2839 22.3875C29.6413 23.6631 30.2662 27.0584 28.5306 29.6613C28.3294 30.0139 28.086 30.335 27.8013 30.6244C27.5167 30.9138 27.2005 31.163 26.8516 31.3709C26.5028 31.5789 26.1338 31.7389 25.7438 31.8511C25.3538 31.9641 24.9561 32.0255 24.5497 32.0351H24.5373Z" fill="#00B46E"/>
<path d="M42.1963 77.7744C42.0823 77.7744 41.9539 77.6719 41.8398 77.5061C41.1834 76.543 40.6678 75.5109 40.2912 74.4078C39.9136 73.3057 39.6903 72.173 39.6194 71.0105C39.5849 70.5783 39.6059 70.149 39.6817 69.7225C39.7564 69.2961 39.8839 68.8859 40.064 68.492C40.2432 68.0981 40.4694 67.733 40.7425 67.3957C41.0147 67.0593 41.3252 66.7632 41.6731 66.5054C41.996 66.3128 42.3449 66.2102 42.7196 66.1987C42.8662 66.2006 43.008 66.2246 43.146 66.2716C43.284 66.3195 43.4115 66.3875 43.5274 66.4757C43.6434 66.5648 43.7431 66.6693 43.8255 66.79C43.9079 66.9108 43.9683 67.0411 44.0085 67.182C44.1964 67.8547 44.296 68.5399 44.3066 69.2386C44.3171 69.9372 44.2395 70.6253 44.0727 71.3038C43.7277 73.0393 43.2687 74.9541 42.6947 76.9953C42.5797 77.4802 42.388 77.7744 42.1963 77.7744Z" fill="#C8FAC8"/>
<path d="M22.3167 47.2092C21.0517 47.1814 19.8126 46.9927 18.5965 46.6419C17.3813 46.2921 16.2313 45.7919 15.1455 45.1421C15.0056 45.052 14.929 44.9754 14.929 44.8996C14.9299 44.7645 14.9855 44.6581 15.0947 44.5805C17.2778 42.7702 19.6852 41.3366 22.3167 40.2795C23.3259 39.9106 24.3685 39.7227 25.4428 39.7179C26.0159 39.694 26.5794 39.7553 27.1343 39.901C27.6882 40.0466 28.2095 40.2709 28.6964 40.5728C28.9091 40.7012 29.095 40.8603 29.2551 41.0491C29.4161 41.2388 29.5416 41.4477 29.6336 41.6787C29.7256 41.9087 29.7793 42.1473 29.7937 42.3955C29.808 42.6428 29.7822 42.8862 29.718 43.1258C29.5167 43.5877 29.2637 44.0199 28.959 44.4214C28.6532 44.822 28.3054 45.1814 27.9125 45.4976C27.5205 45.8149 27.096 46.0803 26.6398 46.294C26.1827 46.5077 25.7073 46.6639 25.2138 46.7627C24.2679 47.0415 23.3029 47.191 22.3167 47.2092Z" fill="#508278"/>
<path d="M64.0033 43.0874C63.8969 43.0817 63.802 43.0452 63.7177 42.9801C63.6343 42.9149 63.5758 42.8315 63.5442 42.7299C63.4637 42.3667 63.4244 41.9997 63.4263 41.6279C63.4283 41.256 63.4714 40.889 63.5557 40.5267C63.6391 40.1645 63.7618 39.8166 63.9237 39.4822C64.0857 39.1467 64.2821 38.8343 64.514 38.5439C64.929 39.3125 65.1418 40.1329 65.1523 41.0069C65.1839 41.1822 65.1935 41.3595 65.1801 41.5368C65.1657 41.7151 65.1303 41.8885 65.0718 42.0572C65.0143 42.2259 64.9357 42.3849 64.837 42.5335C64.7373 42.682 64.6214 42.8152 64.4882 42.9341C64.3406 43.0299 64.1796 43.0807 64.0033 43.0874Z" fill="#C8FAC8"/>
<path d="M32.9838 40.203C32.8266 40.203 32.6733 40.1781 32.5248 40.1263C32.3896 40.0803 32.2689 40.0104 32.1625 39.9145C32.0561 39.8197 31.9728 39.7075 31.9124 39.5772C31.8118 39.3434 31.8118 39.1095 31.9124 38.8757C32.1414 38.3649 33.3537 37.0252 36.0715 36.9102C36.3658 36.9102 36.5315 36.9102 36.5823 37.051C36.6331 37.1909 36.5823 37.2552 36.5823 37.4085C36.1233 38.2049 35.5272 38.8805 34.796 39.4373C34.5459 39.6634 34.2651 39.8427 33.9546 39.9739C33.6441 40.1052 33.3202 40.1809 32.9838 40.203Z" fill="#C8FAC8"/>
<path d="M47.3772 64.6288C46.8741 64.6499 46.4026 64.5397 45.9608 64.2972C45.7816 64.1966 45.6368 64.0596 45.5286 63.8851C45.4193 63.7098 45.3599 63.52 45.3484 63.3149C45.3541 63.0753 45.4183 62.854 45.541 62.6489C45.6637 62.4438 45.8295 62.2828 46.0374 62.1659C46.4744 61.8746 46.9546 61.7385 47.4797 61.7576C48.025 61.7826 48.5559 61.887 49.0706 62.0691C49.5861 62.2521 50.0634 62.5051 50.5033 62.83C50.7304 62.9632 50.8703 63.1587 50.9249 63.4165C50.9134 63.5468 50.8502 63.6398 50.7333 63.6973C49.6916 64.2867 48.5732 64.5972 47.3772 64.6288Z" fill="#82FF87"/>
<path d="M61.3744 53.8707C61.201 53.8726 61.0314 53.8438 60.8675 53.7854C60.7036 53.7269 60.5551 53.6426 60.4209 53.5324C60.2867 53.4212 60.1756 53.2909 60.0874 53.1404C59.9992 52.99 59.9389 52.8299 59.9072 52.6584C59.8181 51.9569 60.9662 51.1912 61.9744 51.0254C62.4468 51.0254 62.5618 51.1653 62.6509 51.3062C62.764 51.6358 62.7976 51.9741 62.7496 52.3201C62.7027 52.6661 62.58 52.9833 62.3826 53.2708C62.282 53.4557 62.1421 53.6023 61.9609 53.7097C61.7808 53.817 61.5853 53.8707 61.3744 53.8707Z" fill="#00B46E"/>
<path d="M42.299 87.4347C41.7374 87.4347 41.1758 87.129 41.1125 86.784C41.3205 86.5262 41.5725 86.3231 41.8687 86.1745C42.1648 86.025 42.4782 85.9436 42.8098 85.9292C43.2429 85.9292 43.3196 86.0317 43.3704 86.0825C43.4221 86.1333 43.447 86.7074 43.1413 87.1032C43.033 87.2201 42.9056 87.3073 42.758 87.3648C42.6104 87.4232 42.4571 87.4462 42.299 87.4347Z" fill="#C8FAC8"/>
<path d="M20.3521 59.3718C20.1307 59.391 19.9093 59.391 19.6879 59.3718C19.5931 59.3574 19.503 59.3287 19.4177 59.2855C19.3314 59.2424 19.2548 59.1878 19.1877 59.1198C19.1196 59.0517 19.0641 58.975 19.0209 58.8898C18.9778 58.8035 18.9491 58.7134 18.9356 58.6185C18.8456 58.1461 18.9356 57.5596 19.2548 57.4446H19.433C19.5404 57.4417 19.6419 57.4638 19.7397 57.5088C20.4421 57.8068 21.089 58.1978 21.6784 58.6828C21.7273 58.7259 21.7599 58.7786 21.7761 58.8409C21.7924 58.9041 21.7896 58.9655 21.7685 59.0268C21.7167 59.1543 21.1302 59.3718 20.3521 59.3718Z" fill="#C8FAC8"/>
<path d="M39.1221 18.1124C38.9342 18.1315 38.7474 18.1315 38.5605 18.1124C38.4867 18.1037 38.4215 18.0769 38.364 18.0309C38.3065 17.9849 38.2653 17.9264 38.2414 17.8565C38.1005 17.3332 38.9812 16.2101 39.5169 15.7127C39.6664 15.5411 39.8533 15.4434 40.0785 15.4194C40.229 15.4242 40.3478 15.4884 40.436 15.6111C40.6008 15.8507 40.7148 16.1133 40.7771 16.3989C40.8385 16.6835 40.8442 16.97 40.7934 17.2566C40.7043 17.7166 39.9894 18.1124 39.1221 18.1124Z" fill="#00B46E"/>
<path d="M21.5894 37.536C21.4082 37.5532 21.2357 37.5226 21.0709 37.4449C20.9061 37.3673 20.7729 37.2533 20.6703 37.1019C20.5534 36.8115 20.5112 36.5106 20.5429 36.1991C20.5745 35.8877 20.6761 35.6021 20.8495 35.3404C20.9224 35.2254 21.0096 35.1219 21.1112 35.0309C21.2137 34.9399 21.3258 34.8642 21.4485 34.8047C21.5712 34.7444 21.7005 34.7032 21.8347 34.6792C21.9689 34.6552 22.104 34.6504 22.2401 34.6648C22.9368 34.6782 23.5837 34.8661 24.1797 35.2254C24.2555 35.2571 24.3254 35.2983 24.3896 35.35C24.4529 35.4018 24.5075 35.4622 24.5535 35.5302C24.5985 35.5982 24.633 35.672 24.656 35.7506C24.68 35.8292 24.6915 35.9097 24.6905 35.9912C24.588 36.5662 23.5932 37.1402 22.1385 37.4718C21.9574 37.5111 21.7743 37.5331 21.5894 37.536Z" fill="#82FF87"/>
<path d="M36.4934 73.2311C36.2567 73.2273 36.0277 73.1813 35.8082 73.0931C35.5878 73.005 35.3913 72.8814 35.2169 72.7204C35.1336 72.6427 35.0789 72.5469 35.0531 72.4357C35.0281 72.3236 35.0358 72.2144 35.077 72.108C35.1297 71.9776 35.1987 71.8559 35.285 71.7438C35.3703 71.6317 35.469 71.533 35.5821 71.4477C35.6942 71.3624 35.8159 71.2934 35.9462 71.2407C36.0775 71.188 36.2126 71.1544 36.3526 71.1381C36.4532 71.1286 36.549 71.1477 36.6381 71.1937C36.7282 71.2397 36.7991 71.3059 36.8509 71.3931C36.9812 71.6365 37.0598 71.8943 37.0866 72.1693C37.1125 72.4434 37.0857 72.7127 37.0033 72.9753C36.9525 73.142 36.7608 73.2311 36.4934 73.2311Z" fill="#00B46E"/>
<path d="M30.4827 35.5705C30.1895 35.5705 29.9853 35.5705 29.9221 35.4047C29.8579 35.2389 29.9221 35.2639 29.9221 35.1623C30.9063 33.1594 31.6509 31.0702 32.155 28.8957C32.984 25.7821 33.7621 22.8343 35.7909 21.3536C36.3276 20.9464 36.9141 20.6339 37.5514 20.4154C38.1887 20.1969 38.8442 20.0848 39.5169 20.0771C40.0641 20.0771 40.5998 20.1538 41.125 20.3071C41.3675 20.4097 41.5333 20.5621 41.5333 20.7029C41.5333 20.8429 41.4317 20.9071 41.2525 20.9579C40.8749 21.0987 40.5069 21.2626 40.1485 21.4485C39.79 21.6335 39.4451 21.8405 39.1125 22.0686C38.779 22.2966 38.4618 22.5439 38.159 22.8103C37.8561 23.0767 37.5706 23.3604 37.3022 23.6623C37.0348 23.9632 36.7857 24.2804 36.5557 24.612C36.3266 24.9436 36.1177 25.2876 35.9308 25.6451C35.743 26.0025 35.5772 26.3696 35.4344 26.7471C35.2916 27.1238 35.1728 27.509 35.077 27.901C34.9236 28.4242 34.8978 28.7558 35.0003 28.9091L35.1536 28.9724C35.283 28.9714 35.4038 28.9369 35.5159 28.8708C35.6271 28.8047 35.7152 28.7156 35.7785 28.6025C36.0487 28.1224 36.3602 27.67 36.7119 27.2455C37.0636 26.8209 37.4508 26.4309 37.8715 26.0763C38.2931 25.7208 38.7436 25.4064 39.2208 25.1314C39.699 24.8573 40.1973 24.6273 40.7168 24.4424C41.0675 24.3494 41.425 24.3024 41.7882 24.3015C41.9798 24.2794 42.1706 24.2823 42.3603 24.3091C42.551 24.336 42.735 24.3858 42.9123 24.4596C43.0896 24.5334 43.2554 24.6283 43.4087 24.7442C43.562 24.8602 43.6981 24.9934 43.817 25.1439C43.9166 25.2866 43.9952 25.44 44.0556 25.6039C44.115 25.7668 44.1533 25.9354 44.1696 26.1079C44.1869 26.2814 44.1811 26.4539 44.1543 26.6254C44.1265 26.797 44.0786 26.9628 44.0086 27.1219C41.8783 33.0309 33.0482 35.2897 30.9811 35.5446L30.4827 35.5705Z" fill="#82FF87"/>
<path d="M45.4892 84.3468C45.3474 84.3458 45.2333 84.2903 45.1442 84.181C44.919 83.5993 44.8471 82.9994 44.9276 82.3813C45.1059 78.3869 46.8031 71.2272 50.7715 67.8836C51.6158 67.1763 52.5435 66.6013 53.5526 66.1605C54.1803 65.9353 54.8263 65.8203 55.4923 65.8165C55.7913 65.781 56.0865 65.7963 56.3797 65.8615C56.6739 65.9276 56.948 66.0397 57.202 66.1988C57.1435 66.2515 57.0755 66.286 56.9978 66.3014C56.6739 66.3924 56.3558 66.5036 56.0443 66.6349C55.7328 66.7652 55.431 66.9137 55.1387 67.0815C54.8454 67.2492 54.5637 67.4332 54.2934 67.6354C54.0232 67.8376 53.7654 68.0551 53.522 68.288C53.2785 68.5218 53.0495 68.7691 52.8358 69.0297C52.6221 69.2914 52.4256 69.5645 52.2455 69.8501C52.0653 70.1347 51.9033 70.4308 51.7586 70.7356C51.6149 71.0403 51.4893 71.3537 51.3839 71.6738C51.3101 71.829 51.2737 71.9929 51.2737 72.1654C51.2737 72.337 51.3101 72.5008 51.3839 72.657L51.703 72.7711C51.9925 72.7548 52.2311 72.636 52.417 72.4146C53.0495 71.6891 53.7826 71.0892 54.6193 70.6148C55.4549 70.1395 56.3462 69.8165 57.292 69.645H57.6361C58.1335 69.645 58.4401 69.76 58.5676 69.9766C58.695 70.1932 58.5676 70.7806 58.1335 71.4821C54.5991 75.9106 48.6402 82.2538 45.7441 84.2443C45.6684 84.3008 45.5831 84.3353 45.4892 84.3468Z" fill="#00B46E"/>
<path d="M30.4318 18.6867C29.9852 18.6867 29.6795 18.5592 29.6029 18.3675C29.5262 18.1759 29.692 17.9085 30.0111 17.666L30.5727 17.2195C31.3633 16.7259 32.0658 16.1298 32.681 15.4303C33.2953 14.7307 33.7965 13.9573 34.1837 13.1092C34.2527 12.9578 34.2862 12.7977 34.2862 12.631C34.2862 12.4642 34.2527 12.3042 34.1837 12.1528L33.9029 12.0502C33.7218 12.0636 33.5646 12.1317 33.4305 12.2543C33.0347 12.5735 30.981 14.1815 29.7687 14.2199C29.3853 14.2199 29.1304 14.1183 29.0154 13.9008C28.9589 13.7072 28.9541 13.5126 29.002 13.3162C29.0499 13.1197 29.1438 12.9491 29.2837 12.8035C31.5234 9.893 33.9269 7.12342 36.4933 4.49567C36.639 4.38067 36.8047 4.32508 36.9907 4.32988C37.3347 4.32988 38.4703 4.534 38.8537 7.27771C38.9332 7.75496 38.9773 8.23604 38.9859 8.72096C38.9936 9.20492 38.9668 9.68792 38.9035 10.168C38.8412 10.6482 38.7425 11.1216 38.6102 11.5873C38.477 12.0531 38.3103 12.5064 38.111 12.9482C37.9107 13.389 37.6797 13.8135 37.4171 14.2208C37.1536 14.6272 36.8632 15.0134 36.5431 15.3766C36.223 15.7408 35.879 16.079 35.5091 16.3924C35.1392 16.7048 34.7482 16.9895 34.337 17.2444C33.7592 17.6488 33.1391 17.9737 32.4779 18.218C31.8157 18.4624 31.1343 18.6186 30.4318 18.6867Z" fill="#C8FAC8"/>
<path d="M46.2031 18.7755C46.0804 18.7889 45.9568 18.7889 45.8332 18.7755C45.5696 18.6576 45.3147 18.5215 45.0703 18.3672C44.825 18.213 44.5921 18.0433 44.3708 17.8565C44.1503 17.6705 43.9424 17.4693 43.7498 17.2537C43.5571 17.038 43.3798 16.81 43.2188 16.5704C43.0578 16.3298 42.9141 16.0797 42.7876 15.819C42.6621 15.5584 42.5547 15.291 42.4656 15.015C42.3774 14.74 42.3084 14.4601 42.2596 14.1745C42.2097 13.8899 42.18 13.6024 42.1714 13.314C42.1714 12.8156 42.6812 12.4582 43.4469 12.3815H43.7402C44.1475 12.3786 44.55 12.4179 44.9486 12.4994C45.3483 12.5799 45.7335 12.7016 46.1073 12.8626C46.481 13.0245 46.8337 13.2229 47.1662 13.4577C47.4978 13.6925 47.8026 13.9599 48.0786 14.2579C48.4322 14.7562 48.6871 15.3015 48.8443 15.8919C48.9468 16.3126 48.9209 16.7975 48.6919 16.9C48.6066 16.924 48.5213 16.924 48.436 16.9C47.8687 16.7985 47.3416 16.5943 46.8538 16.2867C46.6593 16.1765 46.4513 16.1085 46.229 16.0826C46.0756 16.0826 45.9098 16.0826 45.8715 16.3509C45.8332 16.6192 45.8715 16.5292 46.1906 17.1425C46.5098 17.7549 46.803 18.2139 46.7139 18.418C46.6248 18.6222 46.5606 18.7755 46.2031 18.7755Z" fill="#508278"/>
<path d="M26.336 57.1254C25.7782 57.1273 25.2253 57.0765 24.6771 56.9721C23.4792 56.7526 22.3819 56.2936 21.3852 55.594C20.9128 55.2241 20.7087 54.9691 20.747 54.7899C20.7853 54.6117 20.8754 54.5983 21.0661 54.535C21.6536 54.3759 22.2487 54.2609 22.8525 54.19C23.5415 54.0884 24.3714 53.9226 24.5755 53.8584C24.7797 53.7942 24.8563 53.6668 24.8688 53.5652C24.8812 53.4626 24.8688 53.271 24.6139 53.1311C24.4165 53.0055 24.2085 52.903 23.9881 52.8244L22.7125 52.4545L22.381 52.3653C21.921 52.2379 21.5002 52.1229 20.9128 51.9188C20.8083 51.8871 20.7106 51.8402 20.6195 51.7779C20.5697 51.7472 20.5323 51.7051 20.5074 51.6514C20.4825 51.5987 20.4729 51.5431 20.4796 51.4846C20.4796 51.1914 21.6277 50.6298 22.1768 50.5148C23.0163 50.3251 23.8673 50.2273 24.7289 50.2216C25.185 50.1899 25.6393 50.2101 26.0907 50.281C26.543 50.3509 26.981 50.4717 27.4065 50.6403C27.831 50.809 28.2325 51.0227 28.6092 51.2815C28.9867 51.5402 29.3308 51.8383 29.6413 52.1737C31.581 54.4583 30.3045 55.7214 29.8837 56.1431C29.3615 56.4958 28.797 56.7564 28.1904 56.9251C27.5828 57.0928 26.9656 57.1599 26.336 57.1254Z" fill="#82FF87"/>
<path d="M58.7718 27.0587C57.8825 27.0405 57.0315 26.8488 56.2198 26.4837C54.9442 25.9355 53.6677 24.7865 53.6677 24.0725C53.6677 23.7016 53.9361 22.9235 55.4675 22.5919C55.9792 22.475 56.4986 22.4156 57.0238 22.4127C57.41 22.3906 57.7933 22.4146 58.1728 22.4865C58.5533 22.5574 58.9194 22.6733 59.2711 22.8353C59.6228 22.9963 59.9496 23.1976 60.2515 23.44C60.5533 23.6815 60.8217 23.9556 61.0565 24.2632C61.183 24.4281 61.2692 24.6121 61.3143 24.8152C61.3583 25.0193 61.3574 25.2216 61.3114 25.4247C61.2779 25.4947 61.2232 25.5292 61.1456 25.5273C61.0584 25.5215 60.9769 25.4966 60.9031 25.4506C60.0953 25.0433 59.2443 24.7711 58.3511 24.6341H58.2744C58.032 24.6341 57.9428 24.6341 57.8786 24.7481C57.6113 25.0931 57.9812 25.4247 58.2869 25.6806L58.4527 25.833C58.7689 26.1042 59.0622 26.3974 59.3334 26.7137C59.3583 26.7817 59.3583 26.8498 59.3334 26.9178C59.3334 26.9178 59.1293 27.0587 58.7335 27.0587H58.7718Z" fill="#82FF87"/>
<path d="M57.202 61.5664C56.5896 61.5578 55.982 61.4926 55.3811 61.3719C54.7802 61.2511 54.1947 61.0767 53.6255 60.8496C53.0562 60.6215 52.5128 60.3436 51.9944 60.0159C51.4759 59.6881 50.992 59.3163 50.5415 58.8994C50.3135 58.6847 50.1946 58.4212 50.1841 58.1078C50.2176 57.9478 50.2895 57.8069 50.4016 57.6871C50.8338 57.3086 51.2948 56.9684 51.7835 56.6665C52.2723 56.3656 52.7821 56.1059 53.314 55.8883C53.8459 55.6717 54.3921 55.4992 54.9527 55.3727C55.5134 55.2462 56.0797 55.1667 56.6538 55.1351C56.8579 55.1216 57.062 55.1216 57.2662 55.1351C57.938 55.1926 58.58 55.3651 59.1895 55.6526C59.8 55.9401 60.3415 56.3244 60.8139 56.8064C61.2854 57.4322 60.9797 57.8021 60.9414 57.8404C60.903 57.8788 60.5072 58.1596 59.6649 58.1596H58.1469C57.2154 58.1596 57.0745 58.3378 57.0362 58.4653C56.9978 58.5927 57.1128 58.7719 57.2786 58.8735L57.9169 59.2827C58.5676 59.691 59.295 60.15 59.3716 60.495C59.4243 60.6972 59.3908 60.8851 59.2691 61.0566C59.0803 61.2406 58.8627 61.3796 58.6174 61.4754C58.3711 61.5703 58.1172 61.6134 57.8536 61.6048L57.202 61.5664Z" fill="#C8FAC8"/>
<path d="M47.8372 25.616C47.5967 25.6055 47.3705 25.5413 47.1606 25.4244C46.5224 25.0928 46.2416 23.6121 46.6499 22.6299C46.7735 22.3864 46.9201 22.1593 47.0916 21.9475C47.2632 21.7367 47.4558 21.545 47.6676 21.3744C47.8804 21.2039 48.1084 21.0582 48.3519 20.9365C48.5953 20.8138 48.8492 20.7189 49.1128 20.6519C49.3428 20.5905 49.5766 20.557 49.8143 20.5493C50.3759 20.5493 50.6442 20.8176 50.7209 21.2767C50.8196 21.6111 50.8723 21.9523 50.878 22.3011C50.8838 22.649 50.8435 22.9921 50.7554 23.3294C50.6681 23.6668 50.5369 23.9869 50.3615 24.2878C50.1871 24.5897 49.9743 24.8618 49.7251 25.1052C49.2421 25.4569 48.7016 25.6352 48.1046 25.6419L47.8372 25.616Z" fill="#00B46E"/>
<path d="M60.099 67.8709C59.8058 67.8709 59.7032 67.5518 59.6783 67.2835C59.3074 64.144 61.1704 63.1492 62.791 62.8684H63.1484C63.2682 62.856 63.3842 62.8713 63.4963 62.9144C63.6084 62.9566 63.7052 63.0227 63.7867 63.1109C63.8289 63.1924 63.8499 63.2796 63.8499 63.3725C63.8499 63.4645 63.8289 63.5517 63.7867 63.6342C62.9625 65.1637 61.8997 66.5044 60.5964 67.6534C60.4507 67.7722 60.2849 67.8451 60.099 67.8709Z" fill="#508278"/>
<path d="M25.4811 19.6305C25.3785 19.6343 25.277 19.6237 25.1773 19.5969C25.0776 19.5701 24.9837 19.5298 24.8965 19.4752C24.8083 19.4206 24.7307 19.3545 24.6636 19.2768C24.5956 19.1982 24.541 19.113 24.4988 19.0181C24.2055 18.3549 24.9578 17.2825 25.7743 16.7852C25.9468 16.6778 26.1337 16.6175 26.3359 16.606C26.495 16.606 26.6272 16.6654 26.7317 16.7852C26.8563 16.972 26.9416 17.1771 26.9857 17.3975C27.0297 17.6189 27.0297 17.8403 26.9866 18.0607C26.9857 18.1613 26.9751 18.26 26.955 18.3578C26.9349 18.4565 26.9052 18.5514 26.8678 18.6443C26.8295 18.7363 26.7835 18.8245 26.7288 18.9088C26.6742 18.9922 26.6119 19.0698 26.5429 19.1427C26.4739 19.2145 26.3982 19.2797 26.3167 19.3382C26.2353 19.3957 26.149 19.4455 26.058 19.4877C25.9679 19.5289 25.874 19.5624 25.7762 19.5864C25.6795 19.6103 25.5807 19.6257 25.4811 19.6305Z" fill="#82FF87"/>
<path d="M20.0839 25.9984C20.0264 26.0013 19.9689 25.9965 19.9123 25.985C19.8558 25.9745 19.8011 25.9563 19.7484 25.9323C19.6967 25.9074 19.6478 25.8777 19.6028 25.8422C19.5568 25.8058 19.5165 25.7655 19.4811 25.7195C19.4456 25.6745 19.4159 25.6247 19.3919 25.5729C19.368 25.5202 19.3507 25.4656 19.3402 25.4081C19.3296 25.3515 19.3249 25.295 19.3277 25.2365C19.3306 25.179 19.3402 25.1225 19.3565 25.0669C19.4379 24.698 19.5558 24.3405 19.7091 23.9955C19.8625 23.6495 20.0494 23.3228 20.2688 23.0151C20.4873 22.7065 20.7355 22.4238 21.0115 22.166C21.2875 21.9073 21.5865 21.6792 21.9085 21.4808C22.0379 21.4224 22.174 21.3927 22.3168 21.3917C22.4682 21.3898 22.6148 21.4128 22.7576 21.4626C22.9004 21.5125 23.0298 21.5853 23.1467 21.6811C23.2636 21.777 23.3604 21.89 23.4371 22.0204C23.5137 22.1498 23.5655 22.2897 23.5933 22.4382C23.6326 22.6663 23.6412 22.8953 23.6182 23.1253C23.5961 23.3553 23.5434 23.5786 23.4601 23.7943C23.3767 24.0099 23.2665 24.2111 23.1285 24.3961C22.9905 24.582 22.8304 24.7459 22.6484 24.8887C22.3196 25.2068 21.9478 25.4608 21.5319 25.6515C21.116 25.8422 20.6799 25.9572 20.2238 25.9984H20.0839Z" fill="#508278"/>
<path d="M15.9371 59.0401C15.8671 59.0391 15.8067 59.0132 15.7579 58.9634C11.7415 54.8196 8.23685 50.2809 5.24398 45.3464C5.1606 45.1596 5.10023 44.965 5.06381 44.7638C5.02739 44.5625 5.01493 44.3594 5.02739 44.1552C5.03985 43.9501 5.07627 43.7508 5.13664 43.5553C5.19702 43.3589 5.27943 43.1739 5.38389 42.9976C7.91581 38.7905 10.8205 34.8604 14.099 31.2062C15.0564 30.1597 15.8853 29.5981 16.5111 29.5981C17.1359 29.5981 17.3276 29.9422 17.5442 30.6312C17.6707 31.327 17.7349 32.0285 17.7387 32.7348C17.7416 33.4411 17.6831 34.1426 17.5634 34.8393C17.4445 35.536 17.2644 36.2164 17.0257 36.8815C16.7871 37.5466 16.4919 38.1858 16.1412 38.7991C15.6946 39.4144 15.2001 39.9874 14.6577 40.5193C14.1153 41.0512 13.5326 41.5351 12.9087 41.9693C12.2858 42.4034 11.6303 42.7829 10.9441 43.1078C10.257 43.4326 9.54785 43.6981 8.81664 43.9041H8.62498C8.50231 43.9339 8.39977 43.9971 8.31735 44.0929C8.23493 44.1897 8.18893 44.3009 8.17839 44.4274C8.17839 44.759 8.4726 45.2947 9.39068 45.7039L9.82481 45.8946C10.8023 46.2367 11.7166 46.7015 12.5695 47.288C13.4224 47.8745 14.1833 48.5636 14.8522 49.3532C17.2126 52.5569 16.3836 57.2403 16.1278 58.7717C16.1699 58.8388 16.1671 58.9049 16.1211 58.9691C16.0751 59.0334 16.0137 59.0573 15.9371 59.0401ZM12.3893 35.2006C12.2331 35.214 12.097 35.2744 11.9811 35.3788C11.1262 36.2509 10.3481 37.1872 9.64656 38.1867C9.47981 38.4167 8.0126 40.5222 8.14006 41.2237C8.15252 41.2793 8.17456 41.3301 8.20523 41.378C8.23685 41.4249 8.27518 41.4652 8.32118 41.4978C8.36718 41.5304 8.41702 41.5543 8.47164 41.5687C8.52627 41.5831 8.58185 41.5879 8.63839 41.5811C8.9786 41.5342 9.30252 41.4345 9.61014 41.2812C9.91873 41.1288 10.1938 40.9304 10.4372 40.688C10.9441 40.2376 11.3821 39.7277 11.7511 39.1575C12.1191 38.5883 12.4037 37.9788 12.6069 37.3319C12.7592 36.8211 12.9384 35.7104 12.6069 35.3405L12.3644 35.2006H12.3893Z" fill="#C8FAC8"/>
<path d="M65.4706 59.6907C65.3977 59.6917 65.3316 59.6696 65.2741 59.6246C65.2166 59.5786 65.1802 59.5201 65.1649 59.4483C64.9416 58.6921 64.8036 57.9207 64.7499 57.1339C64.6962 56.3471 64.7279 55.5641 64.8457 54.785C64.9636 54.0059 65.1649 53.2478 65.4495 52.5128C65.7332 51.7778 66.0935 51.082 66.5305 50.4256C67.9718 48.4217 69.7582 47.541 72.2335 46.3287L72.9868 45.9463C73.5484 45.6923 73.9949 45.3052 74.3265 44.7848C74.3869 44.6918 74.4243 44.5903 74.4377 44.481C74.4511 44.3708 74.4396 44.2635 74.4032 44.159C74.3428 44.0603 74.2633 43.9817 74.1636 43.9223C74.0649 43.8638 73.9566 43.8322 73.8416 43.8274C73.3002 43.7536 72.7692 43.6338 72.2479 43.47C71.7275 43.3051 71.2244 43.0981 70.7385 42.849C70.2527 42.5988 69.7917 42.3094 69.3547 41.9807C68.9187 41.653 68.5123 41.2898 68.1376 40.8921C66.2363 38.6333 66.6196 34.3457 66.9771 33.12C67.1553 32.4693 67.462 32.2393 67.6661 32.2393C70.8775 35.4966 73.7017 39.0616 76.1387 42.9343C76.2566 43.2189 76.3409 43.5131 76.3908 43.8169C76.4416 44.1216 76.4569 44.4273 76.4368 44.735C76.4167 45.0426 76.362 45.3435 76.2729 45.6387C76.1838 45.9338 76.0621 46.2146 75.9087 46.482C73.0069 51.2373 69.6048 55.6015 65.7006 59.5757C65.6354 59.6371 65.5587 59.6754 65.4706 59.6907ZM72.8718 47.426C72.5852 47.4384 72.3083 47.4959 72.0419 47.6013C71.7745 47.7068 71.533 47.8524 71.3154 48.0383C70.8899 48.3517 70.5306 48.7274 70.2373 49.1653C69.9431 49.6043 69.7332 50.0796 69.6048 50.5913C69.4917 50.8808 69.4352 51.1807 69.4352 51.4912C69.4352 51.8017 69.4917 52.1017 69.6048 52.3911C69.7246 52.4716 69.8569 52.5147 70.0006 52.5186C70.1386 52.5176 70.2622 52.4745 70.3705 52.3911C71.1132 51.7528 71.7726 51.0379 72.3485 50.2463C72.6552 49.8256 73.625 48.4217 73.4717 47.6943C73.4583 47.5668 73.2158 47.426 72.8718 47.426Z" fill="#82FF87"/>
<path d="M48.9853 11.0296C48.416 11.0344 47.8506 10.9884 47.29 10.8906C46.7284 10.7929 46.1812 10.6453 45.6474 10.4479C45.1127 10.2505 44.6009 10.0071 44.1112 9.71669C43.6215 9.42631 43.1625 9.09377 42.7331 8.72002C42.3718 8.27919 42.0623 7.80577 41.8045 7.29785C41.5458 6.79089 41.3445 6.26189 41.2008 5.71181C41.056 5.16077 40.9727 4.6011 40.9487 4.03281C40.9257 3.46356 40.9631 2.8991 41.0608 2.33848C41.0848 2.2321 41.1241 2.13148 41.1797 2.03756C41.2362 1.94364 41.3052 1.86123 41.3886 1.78935C41.471 1.71843 41.563 1.66189 41.6646 1.62068C41.7652 1.57852 41.8706 1.55456 41.9799 1.54785C42.2377 1.55456 42.4638 1.64368 42.6565 1.81523C45.4711 4.35673 47.9896 7.16369 50.21 10.238C50.2752 10.3616 50.2752 10.4853 50.21 10.6079C50.1382 10.7191 50.0443 10.8073 49.9293 10.8724C49.8152 10.9376 49.6916 10.9731 49.5593 10.9788L48.9853 11.0296ZM43.2564 4.06156C43.0264 4.13823 42.8347 4.49569 42.9622 5.20964C43.0532 5.57477 43.2094 5.91019 43.4298 6.21398C43.6503 6.51873 43.9195 6.77077 44.2387 6.97106C44.4802 7.08989 44.7351 7.1541 45.0044 7.16273C45.1903 7.17998 45.3475 7.12056 45.4759 6.98352C45.5535 6.82635 45.5535 6.66919 45.4759 6.51202C45.2488 5.94852 44.921 5.45019 44.4936 5.01893C43.8553 4.27814 43.5496 4.02323 43.2938 4.02323L43.2564 4.06156Z" fill="#82FF87"/>
<path d="M27.9183 71.368C27.1391 71.3901 26.4118 71.207 25.7361 70.8189C24.13 69.6651 22.6791 68.3397 21.3853 66.8428C20.0916 65.3459 18.9904 63.7186 18.081 61.962C18.0235 61.8681 18.0235 61.7751 18.081 61.6812C28.4798 61.5921 33.6347 59.3716 36.6209 57.7127C38.9046 56.4362 46.1908 51.5612 44.3661 42.0794C44.1869 41.1853 43.8812 40.6621 43.5496 40.6621C43.2181 40.6621 43.0772 41.0071 43.0139 41.6194C42.299 48.4092 38.7005 52.9652 35.8044 52.9652C35.6051 52.9613 35.4096 52.9345 35.2169 52.8837C35.0243 52.8329 34.8413 52.7591 34.6668 52.6642C34.4924 52.5684 34.3314 52.4534 34.1848 52.3183C34.0391 52.1841 33.9107 52.0337 33.8005 51.8679C32.64 50.2722 32.9208 46.7628 34.4263 44.0316C35.5955 42.1983 36.9908 40.5557 38.6113 39.1057C41.0704 36.823 43.2526 34.3007 45.1568 31.5378C45.2143 31.441 45.2919 31.3653 45.3906 31.3107C45.4883 31.256 45.5938 31.2292 45.7059 31.2311C46.003 31.2762 46.2723 31.3854 46.5157 31.5617C46.7591 31.7371 46.9488 31.9594 47.084 32.2268C52.6088 41.0071 47.3897 50.4888 45.8075 52.3777C45.68 52.531 45.6292 52.6585 45.6676 52.761C45.7059 52.8626 45.8209 52.9009 45.9867 52.9009C46.5713 52.8875 47.1108 52.7256 47.6072 52.416C49.154 51.4452 50.5828 50.324 51.8938 49.0532C53.2058 47.7825 54.3711 46.3891 55.3908 44.8739C57.1005 42.3219 59.7416 36.3237 58.8101 30.5172C58.8101 30.2872 58.7335 30.1597 58.8101 30.1338C59.0651 30.1338 59.3209 30.3887 59.4743 30.7079C60.0061 31.9336 60.3502 33.2101 60.5073 34.5364V34.6265H60.7239C60.8523 34.6265 61.0565 34.6265 61.2088 34.2432C62.2726 32.1367 63.046 29.9287 63.5318 27.6201V27.301C63.5405 27.0892 63.5836 26.8851 63.6593 26.6886C63.8385 26.6809 63.9871 26.7442 64.1059 26.8793C64.2544 27.0288 64.3819 27.1946 64.4873 27.3777C64.5937 27.5607 64.6732 27.7533 64.7288 27.9574C64.7834 28.1616 64.8112 28.3686 64.8112 28.5794C64.8122 28.7912 64.7853 28.9982 64.7307 29.2023C64.6541 29.6364 64.1826 30.9762 63.6718 32.3926C62.5764 35.2858 61.6401 38.2298 60.8648 41.2237C60.4431 43.0359 60.239 44.504 61.6554 45.3081C62.1384 45.4892 62.6368 45.5486 63.1485 45.4863C64.6148 45.4327 66.0647 45.2534 67.4993 44.9506C67.691 45.1672 67.4102 45.7796 66.9128 45.9847L65.6373 46.4945C61.6554 48.115 52.3538 51.9052 46.1525 57.0869C43.4864 59.3285 40.9899 61.7444 38.6621 64.3358C37.6664 65.5634 36.5624 66.6866 35.3521 67.7034C34.1417 68.7211 32.847 69.6143 31.466 70.3848C30.3572 70.9799 29.1746 71.3077 27.9183 71.368ZM33.7238 61.4646C33.2773 61.4646 32.3716 61.7454 31.3251 62.0003L30.5594 62.1786C30.1406 62.2409 29.7391 62.3607 29.3548 62.5379C28.9705 62.7162 28.6188 62.9452 28.3016 63.2251C28.1923 63.342 28.1118 63.4762 28.0611 63.6276C28.0093 63.779 27.9921 63.9342 28.0074 64.0933C28.0266 64.2946 28.086 64.4834 28.1856 64.6597C28.2863 64.8351 28.4185 64.9827 28.5824 65.1015C28.8018 65.2625 29.0414 65.3832 29.3021 65.4647C29.5618 65.5452 29.8282 65.5816 30.1004 65.5739C30.6495 65.5701 31.1689 65.4417 31.6567 65.1906C32.2518 64.9089 32.7895 64.5428 33.2706 64.0943C33.7516 63.6458 34.1541 63.135 34.4771 62.5619C34.5499 62.4172 34.5863 62.2639 34.5863 62.1029C34.5863 61.9409 34.5499 61.7876 34.4771 61.6429C34.3717 61.5566 34.2538 61.4982 34.1216 61.4665C33.9893 61.4349 33.8571 61.4349 33.7238 61.4646Z" fill="#508278"/>
<path d="M28.5689 48.2557C28.4797 48.7914 29.8454 49.4421 30.4194 49.0722C30.9934 48.7023 30.8919 47.1584 30.1511 47.2092C29.4112 47.26 28.6963 47.8341 28.5689 48.2557Z" fill="#00B46E"/>
<path d="M79.6509 45.93C79.6509 56.7381 70.8994 65.4983 60.1037 65.4983C49.3072 65.4983 40.5557 56.7381 40.5557 45.93C40.5557 35.1229 49.3072 26.3628 60.1037 26.3628C70.8994 26.3628 79.6509 35.1229 79.6509 45.93Z" fill="#EDF4E0"/>
<path d="M60.1037 26.3628C49.3072 26.3628 40.5557 35.1229 40.5557 45.93C40.5557 56.7381 49.3072 65.4983 60.1037 65.4983C70.8994 65.4983 79.6509 56.7381 79.6509 45.93C79.6509 35.1229 70.8994 26.3628 60.1037 26.3628ZM60.1037 30.2757C68.7268 30.2757 75.7409 37.2993 75.7409 45.93C75.7409 54.5608 68.7268 61.5844 60.1037 61.5844C51.4807 61.5844 44.4647 54.5608 44.4647 45.93C44.4647 37.2993 51.4807 30.2757 60.1037 30.2757Z" fill="#00B46E"/>
<path d="M60.1028 34.1895C53.6264 34.1895 48.3748 39.4459 48.3748 45.93C48.3748 52.4141 53.6264 57.6705 60.1028 57.6705C66.5812 57.6705 71.8319 52.4141 71.8319 45.93C71.8319 39.4459 66.5812 34.1895 60.1028 34.1895ZM60.1028 38.1033C64.4144 38.1033 67.9228 41.6146 67.9228 45.93C67.9228 50.2454 64.4144 53.7577 60.1028 53.7577C55.7923 53.7577 52.2838 50.2454 52.2838 45.93C52.2838 41.6146 55.7923 38.1033 60.1028 38.1033Z" fill="#00B46E"/>
<path d="M64.0129 45.93C64.0129 48.091 62.263 49.8438 60.1029 49.8438C57.9447 49.8438 56.1938 48.091 56.1938 45.93C56.1938 43.7689 57.9447 42.0171 60.1029 42.0171C62.263 42.0171 64.0129 43.7689 64.0129 45.93Z" fill="#00B46E"/>
<path d="M81.8474 33.5446C83.1852 35.8638 89.2208 34.8834 83.9241 37.9443C78.6264 41.0062 73.2492 41.6071 71.9104 39.2879C70.5735 36.9688 73.782 32.6064 79.0778 29.5446C84.3754 26.4836 80.5095 31.2255 81.8474 33.5446Z" fill="#508278"/>
<path d="M60.1038 46.8933C59.8336 46.8933 59.572 46.7534 59.4263 46.5023C59.2097 46.1276 59.3381 45.6494 59.7128 45.4328L82.0564 32.5202C82.4292 32.3027 82.9074 32.4321 83.1249 32.8068C83.3406 33.1815 83.2121 33.6597 82.8384 33.8763L60.4948 46.7898C60.3712 46.8598 60.237 46.8933 60.1038 46.8933Z" fill="#50616C"/>
<path d="M111.526 61.47C108.079 61.47 105.118 60.7807 102.643 59.402C100.199 57.992 98.3188 56.018 97.0028 53.48C95.6868 50.9107 95.0288 47.887 95.0288 44.409C95.0288 41.8083 95.4048 39.474 96.1568 37.406C96.9088 35.3067 97.9898 33.5207 99.3998 32.048C100.81 30.544 102.533 29.4003 104.57 28.617C106.638 27.8023 108.957 27.395 111.526 27.395C113.249 27.395 114.941 27.6143 116.602 28.053C118.263 28.4917 119.72 29.1183 120.973 29.933C121.631 30.3403 122.07 30.8417 122.289 31.437C122.508 32.001 122.555 32.565 122.43 33.129C122.305 33.6617 122.038 34.116 121.631 34.492C121.255 34.868 120.769 35.0873 120.174 35.15C119.61 35.1813 118.983 34.9777 118.294 34.539C117.323 33.9123 116.273 33.458 115.145 33.176C114.017 32.894 112.873 32.753 111.714 32.753C109.489 32.753 107.609 33.2073 106.074 34.116C104.539 35.0247 103.379 36.3407 102.596 38.064C101.813 39.7873 101.421 41.9023 101.421 44.409C101.421 46.8843 101.813 48.9993 102.596 50.754C103.379 52.5087 104.539 53.8403 106.074 54.749C107.609 55.6577 109.489 56.112 111.714 56.112C112.905 56.112 114.08 55.971 115.239 55.689C116.398 55.3757 117.495 54.9057 118.529 54.279C119.218 53.8717 119.829 53.6993 120.362 53.762C120.926 53.7933 121.396 53.9813 121.772 54.326C122.148 54.6707 122.399 55.1093 122.524 55.642C122.649 56.1433 122.618 56.676 122.43 57.24C122.242 57.7727 121.866 58.2427 121.302 58.65C120.049 59.5587 118.545 60.2637 116.79 60.765C115.067 61.235 113.312 61.47 111.526 61.47ZM133.762 61.47C132.101 61.47 130.613 61.1567 129.297 60.53C128.012 59.872 126.994 58.9947 126.242 57.898C125.521 56.8013 125.161 55.5637 125.161 54.185C125.161 52.493 125.6 51.1613 126.477 50.19C127.354 49.1873 128.78 48.4667 130.754 48.028C132.728 47.5893 135.376 47.37 138.697 47.37H141.047V50.754H138.744C136.801 50.754 135.25 50.848 134.091 51.036C132.932 51.224 132.101 51.553 131.6 52.023C131.13 52.4617 130.895 53.0883 130.895 53.903C130.895 54.937 131.255 55.783 131.976 56.441C132.697 57.099 133.699 57.428 134.984 57.428C136.018 57.428 136.927 57.193 137.71 56.723C138.525 56.2217 139.167 55.548 139.637 54.702C140.107 53.856 140.342 52.8847 140.342 51.788V46.383C140.342 44.8163 139.997 43.6883 139.308 42.999C138.619 42.3097 137.459 41.965 135.83 41.965C134.921 41.965 133.934 42.0747 132.869 42.294C131.835 42.5133 130.738 42.8893 129.579 43.422C128.984 43.704 128.451 43.7823 127.981 43.657C127.542 43.5317 127.198 43.281 126.947 42.905C126.696 42.4977 126.571 42.059 126.571 41.589C126.571 41.119 126.696 40.6647 126.947 40.226C127.198 39.756 127.621 39.4113 128.216 39.192C129.657 38.5967 131.036 38.1737 132.352 37.923C133.699 37.6723 134.921 37.547 136.018 37.547C138.274 37.547 140.123 37.8917 141.564 38.581C143.037 39.2703 144.133 40.32 144.854 41.73C145.575 43.1087 145.935 44.8947 145.935 47.088V58.368C145.935 59.3393 145.7 60.0913 145.23 60.624C144.76 61.1253 144.086 61.376 143.209 61.376C142.332 61.376 141.642 61.1253 141.141 60.624C140.671 60.0913 140.436 59.3393 140.436 58.368V56.112H140.812C140.593 57.2087 140.154 58.1643 139.496 58.979C138.869 59.7623 138.07 60.3733 137.099 60.812C136.128 61.2507 135.015 61.47 133.762 61.47ZM159.277 61.47C156.676 61.47 154.718 60.7337 153.402 59.261C152.086 57.757 151.428 55.5637 151.428 52.681V30.45C151.428 29.4787 151.679 28.7423 152.18 28.241C152.681 27.7397 153.402 27.489 154.342 27.489C155.282 27.489 156.003 27.7397 156.504 28.241C157.037 28.7423 157.303 29.4787 157.303 30.45V52.399C157.303 53.8403 157.601 54.9057 158.196 55.595C158.823 56.2843 159.7 56.629 160.828 56.629C161.079 56.629 161.314 56.629 161.533 56.629C161.752 56.5977 161.972 56.5663 162.191 56.535C162.63 56.4723 162.927 56.5977 163.084 56.911C163.241 57.193 163.319 57.7883 163.319 58.697C163.319 59.4803 163.162 60.0913 162.849 60.53C162.536 60.9687 162.019 61.235 161.298 61.329C160.985 61.3603 160.656 61.3917 160.311 61.423C159.966 61.4543 159.622 61.47 159.277 61.47ZM176.218 61.47C173.837 61.47 171.769 60.9843 170.014 60.013C168.26 59.0417 166.897 57.663 165.925 55.877C164.954 54.0597 164.468 51.929 164.468 49.485C164.468 47.6363 164.735 45.9913 165.267 44.55C165.831 43.0773 166.63 41.824 167.664 40.79C168.698 39.7247 169.936 38.9257 171.377 38.393C172.819 37.829 174.432 37.547 176.218 37.547C178.6 37.547 180.668 38.0327 182.422 39.004C184.177 39.9753 185.54 41.354 186.511 43.14C187.483 44.926 187.968 47.041 187.968 49.485C187.968 51.3337 187.686 52.9943 187.122 54.467C186.59 55.9397 185.806 57.2087 184.772 58.274C183.738 59.308 182.501 60.107 181.059 60.671C179.618 61.2037 178.004 61.47 176.218 61.47ZM176.218 57.005C177.378 57.005 178.396 56.723 179.273 56.159C180.151 55.595 180.824 54.7647 181.294 53.668C181.796 52.54 182.046 51.1457 182.046 49.485C182.046 46.9783 181.514 45.114 180.448 43.892C179.383 42.6387 177.973 42.012 176.218 42.012C175.059 42.012 174.041 42.294 173.163 42.858C172.286 43.3907 171.597 44.221 171.095 45.349C170.625 46.4457 170.39 47.8243 170.39 49.485C170.39 51.9603 170.923 53.8403 171.988 55.125C173.054 56.3783 174.464 57.005 176.218 57.005ZM195.919 61.376C194.948 61.376 194.196 61.1097 193.663 60.577C193.162 60.013 192.911 59.2453 192.911 58.274V30.92C192.911 29.9173 193.178 29.1653 193.71 28.664C194.243 28.1313 194.995 27.865 195.966 27.865H207.293C210.928 27.865 213.732 28.7423 215.706 30.497C217.68 32.2203 218.667 34.6487 218.667 37.782C218.667 39.8187 218.213 41.5733 217.304 43.046C216.427 44.5187 215.142 45.6467 213.45 46.43C211.758 47.2133 209.706 47.605 207.293 47.605L207.716 46.9H209.267C210.552 46.9 211.664 47.2133 212.604 47.84C213.576 48.4667 214.422 49.4537 215.142 50.801L218.667 57.334C219.043 57.992 219.216 58.6343 219.184 59.261C219.153 59.8877 218.918 60.4047 218.479 60.812C218.041 61.188 217.398 61.376 216.552 61.376C215.706 61.376 215.017 61.2037 214.484 60.859C213.952 60.483 213.482 59.919 213.074 59.167L208.327 50.425C207.763 49.3597 207.09 48.6547 206.306 48.31C205.554 47.934 204.583 47.746 203.392 47.746H198.927V58.274C198.927 59.2453 198.677 60.013 198.175 60.577C197.674 61.1097 196.922 61.376 195.919 61.376ZM198.927 43.281H206.259C208.421 43.281 210.051 42.8423 211.147 41.965C212.275 41.0563 212.839 39.709 212.839 37.923C212.839 36.1683 212.275 34.8523 211.147 33.975C210.051 33.0663 208.421 32.612 206.259 32.612H198.927V43.281ZM227.012 61.329C226.072 61.329 225.352 61.047 224.85 60.483C224.349 59.919 224.098 59.1357 224.098 58.133V40.884C224.098 39.85 224.349 39.0667 224.85 38.534C225.352 37.97 226.072 37.688 227.012 37.688C227.952 37.688 228.673 37.97 229.174 38.534C229.707 39.0667 229.973 39.85 229.973 40.884V58.133C229.973 59.1357 229.723 59.919 229.221 60.483C228.72 61.047 227.984 61.329 227.012 61.329ZM227.012 33.317C225.916 33.317 225.054 33.0507 224.427 32.518C223.832 31.954 223.534 31.1863 223.534 30.215C223.534 29.2123 223.832 28.4447 224.427 27.912C225.054 27.3793 225.916 27.113 227.012 27.113C228.14 27.113 229.002 27.3793 229.597 27.912C230.193 28.4447 230.49 29.2123 230.49 30.215C230.49 31.1863 230.193 31.954 229.597 32.518C229.002 33.0507 228.14 33.317 227.012 33.317ZM246.324 69.93C244.632 69.93 242.987 69.7733 241.389 69.46C239.822 69.1467 238.396 68.661 237.112 68.003C236.516 67.6897 236.109 67.3137 235.89 66.875C235.702 66.4363 235.639 65.982 235.702 65.512C235.796 65.0733 235.984 64.6817 236.266 64.337C236.579 63.9923 236.955 63.7573 237.394 63.632C237.832 63.5067 238.287 63.5693 238.757 63.82C240.135 64.5093 241.436 64.948 242.658 65.136C243.911 65.3553 244.976 65.465 245.854 65.465C247.953 65.465 249.52 64.948 250.554 63.914C251.619 62.9113 252.152 61.4073 252.152 59.402V55.172H252.575C252.105 56.77 251.118 58.0547 249.614 59.026C248.141 59.966 246.465 60.436 244.585 60.436C242.517 60.436 240.715 59.966 239.18 59.026C237.644 58.0547 236.454 56.7073 235.608 54.984C234.762 53.2607 234.339 51.2553 234.339 48.968C234.339 47.2447 234.574 45.6937 235.044 44.315C235.545 42.905 236.234 41.6987 237.112 40.696C238.02 39.6933 239.101 38.9257 240.355 38.393C241.639 37.829 243.049 37.547 244.585 37.547C246.527 37.547 248.219 38.0327 249.661 39.004C251.133 39.944 252.089 41.1973 252.528 42.764L252.058 43.939V40.602C252.058 39.6307 252.308 38.8943 252.81 38.393C253.342 37.8917 254.063 37.641 254.972 37.641C255.912 37.641 256.632 37.8917 257.134 38.393C257.635 38.8943 257.886 39.6307 257.886 40.602V58.697C257.886 62.4257 256.899 65.23 254.925 67.11C252.951 68.99 250.084 69.93 246.324 69.93ZM246.183 55.971C247.405 55.971 248.454 55.689 249.332 55.125C250.209 54.561 250.883 53.762 251.353 52.728C251.854 51.6627 252.105 50.4093 252.105 48.968C252.105 46.806 251.572 45.114 250.507 43.892C249.441 42.6387 248 42.012 246.183 42.012C244.961 42.012 243.911 42.294 243.034 42.858C242.156 43.422 241.467 44.221 240.966 45.255C240.496 46.289 240.261 47.5267 240.261 48.968C240.261 51.13 240.793 52.8377 241.859 54.091C242.924 55.3443 244.365 55.971 246.183 55.971ZM266.417 61.376C265.477 61.376 264.756 61.1253 264.255 60.624C263.754 60.0913 263.503 59.3393 263.503 58.368V30.45C263.503 29.4787 263.754 28.7423 264.255 28.241C264.756 27.7397 265.477 27.489 266.417 27.489C267.357 27.489 268.078 27.7397 268.579 28.241C269.112 28.7423 269.378 29.4787 269.378 30.45V42.623H268.72C269.409 40.9623 270.475 39.709 271.916 38.863C273.389 37.9857 275.049 37.547 276.898 37.547C278.747 37.547 280.266 37.8917 281.457 38.581C282.648 39.2703 283.541 40.32 284.136 41.73C284.731 43.1087 285.029 44.8633 285.029 46.994V58.368C285.029 59.3393 284.778 60.0913 284.277 60.624C283.776 61.1253 283.055 61.376 282.115 61.376C281.175 61.376 280.439 61.1253 279.906 60.624C279.405 60.0913 279.154 59.3393 279.154 58.368V47.276C279.154 45.49 278.809 44.1897 278.12 43.375C277.462 42.5603 276.428 42.153 275.018 42.153C273.295 42.153 271.916 42.7013 270.882 43.798C269.879 44.8633 269.378 46.289 269.378 48.075V58.368C269.378 60.3733 268.391 61.376 266.417 61.376ZM301.054 61.47C299.017 61.47 297.31 61.1253 295.931 60.436C294.584 59.7467 293.581 58.744 292.923 57.428C292.265 56.0807 291.936 54.42 291.936 52.446V42.435H289.492C288.74 42.435 288.16 42.247 287.753 41.871C287.346 41.4637 287.142 40.9153 287.142 40.226C287.142 39.5053 287.346 38.957 287.753 38.581C288.16 38.205 288.74 38.017 289.492 38.017H291.936V33.74C291.936 32.7687 292.187 32.0323 292.688 31.531C293.221 31.0297 293.957 30.779 294.897 30.779C295.837 30.779 296.558 31.0297 297.059 31.531C297.56 32.0323 297.811 32.7687 297.811 33.74V38.017H302.793C303.545 38.017 304.125 38.205 304.532 38.581C304.939 38.957 305.143 39.5053 305.143 40.226C305.143 40.9153 304.939 41.4637 304.532 41.871C304.125 42.247 303.545 42.435 302.793 42.435H297.811V52.117C297.811 53.621 298.14 54.749 298.798 55.501C299.456 56.253 300.521 56.629 301.994 56.629C302.527 56.629 302.997 56.582 303.404 56.488C303.811 56.394 304.172 56.3313 304.485 56.3C304.861 56.2687 305.174 56.394 305.425 56.676C305.676 56.9267 305.801 57.4593 305.801 58.274C305.801 58.9007 305.691 59.4647 305.472 59.966C305.284 60.436 304.924 60.765 304.391 60.953C303.984 61.0783 303.451 61.188 302.793 61.282C302.135 61.4073 301.555 61.47 301.054 61.47Z" fill="#C8FAC8"/>
</svg>
