<svg xmlns="http://www.w3.org/2000/svg" width="195" height="187" fill="none" viewBox="0 0 195 187"><path fill="#00B46E" d="M33.1171 0.0496964C33.1171 0.0496964 81.8081 -3.0251 77.2821 39.1971C77.2821 39.1971 84.2536 11.1115 114.877 23.9731C114.877 23.9731 108.417 51.7213 82.7571 44.9717C82.7571 44.9717 88.0861 24.4981 106.884 23.7481C106.884 23.7481 92.3201 19.8859 76.9171 42.0469C76.9171 42.0469 69.6901 6.61177 42.7531 4.66189C42.7531 4.66189 70.2011 11.9364 71.0771 44.9717C71.0771 45.0092 32.2411 47.5966 33.1171 0.0496964ZM146.997 118.392C146.997 136.578 143.457 154.127 135.317 168.001C119.914 179.588 96.9921 186 73.9971 186C51.0386 186 28.0801 179.588 12.6771 168.001C4.53757 154.127 0.99707 136.578 0.99707 118.392C0.99707 100.243 7.45757 82.8818 15.5971 69.0077C31.0001 57.4209 51.0386 50.7839 73.9971 50.7839C96.9921 50.7839 116.994 57.3834 132.397 69.0077C140.537 82.8818 146.997 100.243 146.997 118.392ZM44.7971 157.502C44.7971 151.69 40.2346 147.003 34.5771 147.003C28.9196 147.003 24.3571 151.69 24.3571 157.502C24.3571 163.314 28.9196 168.001 34.5771 168.001C40.2346 168.001 44.7971 163.314 44.7971 157.502ZM44.7971 132.678C44.7971 126.866 40.2346 122.179 34.5771 122.179C28.9196 122.179 24.3571 126.866 24.3571 132.678C24.3571 138.491 28.9196 143.178 34.5771 143.178C40.2346 143.178 44.7971 138.491 44.7971 132.678ZM44.7971 107.855C44.7971 102.043 40.2346 97.3558 34.5771 97.3558C28.9196 97.3558 24.3571 102.043 24.3571 107.855C24.3571 113.667 28.9196 118.354 34.5771 118.354C40.2346 118.354 44.7971 113.667 44.7971 107.855ZM71.0771 157.502C71.0771 151.69 66.5146 147.003 60.8571 147.003C55.1996 147.003 50.6371 151.69 50.6371 157.502C50.6371 163.314 55.1996 168.001 60.8571 168.001C66.5146 168.001 71.0771 163.314 71.0771 157.502ZM71.0771 132.678C71.0771 126.866 66.5146 122.179 60.8571 122.179C55.1996 122.179 50.6371 126.866 50.6371 132.678C50.6371 138.491 55.1996 143.178 60.8571 143.178C66.5146 143.178 71.0771 138.491 71.0771 132.678ZM71.0771 107.855C71.0771 102.043 66.5146 97.3558 60.8571 97.3558C55.1996 97.3558 50.6371 102.043 50.6371 107.855C50.6371 113.667 55.1996 118.354 60.8571 118.354C66.5146 118.354 71.0771 113.667 71.0771 107.855ZM97.3571 157.502C97.3571 151.69 92.7946 147.003 87.1371 147.003C81.4796 147.003 76.9171 151.69 76.9171 157.502C76.9171 163.314 81.4796 168.001 87.1371 168.001C92.7946 168.001 97.3571 163.314 97.3571 157.502ZM97.3571 132.678C97.3571 126.866 92.7946 122.179 87.1371 122.179C81.4796 122.179 76.9171 126.866 76.9171 132.678C76.9171 138.491 81.4796 143.178 87.1371 143.178C92.7946 143.178 97.3571 138.491 97.3571 132.678ZM97.3571 107.855C97.3571 102.043 92.7946 97.3558 87.1371 97.3558C81.4796 97.3558 76.9171 102.043 76.9171 107.855C76.9171 113.667 81.4796 118.354 87.1371 118.354C92.7946 118.354 97.3571 113.667 97.3571 107.855ZM123.637 157.502C123.637 151.69 119.075 147.003 113.417 147.003C107.76 147.003 103.197 151.69 103.197 157.502C103.197 163.314 107.76 168.001 113.417 168.001C119.075 168.001 123.637 163.314 123.637 157.502ZM123.637 132.678C123.637 126.866 119.075 122.179 113.417 122.179C107.76 122.179 103.197 126.866 103.197 132.678C103.197 138.491 107.76 143.178 113.417 143.178C119.075 143.178 123.637 138.491 123.637 132.678ZM123.637 107.855C123.637 102.043 119.075 97.3558 113.417 97.3558C107.76 97.3558 103.197 102.043 103.197 107.855C103.197 113.667 107.76 118.354 113.417 118.354C119.075 118.354 123.637 113.667 123.637 107.855ZM132.397 93.0061C130.645 84.6441 129.696 79.1695 126.557 72.0075C112.395 64.5455 93.5246 60.0083 73.9971 60.0083C54.4696 60.0083 35.5991 64.5455 21.4371 72.0075C18.2251 79.3195 17.3491 84.7191 15.5971 93.0061C31.0001 90.0438 51.6226 87.4565 73.9971 87.4565C96.3716 87.4565 116.994 90.0438 132.397 93.0061Z"/><path fill="#EDF4E0" d="M179.909 143.313C179.909 167.064 160.677 186.314 136.954 186.314C113.228 186.314 93.9971 167.064 93.9971 143.313C93.9971 119.565 113.228 100.314 136.954 100.314C160.677 100.314 179.909 119.565 179.909 143.313Z"/><path fill="#00B46E" d="M136.954 100.314C113.228 100.314 93.9971 119.565 93.9971 143.313C93.9971 167.064 113.228 186.314 136.954 186.314C160.677 186.314 179.909 167.064 179.909 143.313C179.909 119.565 160.677 100.314 136.954 100.314ZM136.954 108.913C155.903 108.913 171.316 124.347 171.316 143.313C171.316 162.279 155.903 177.714 136.954 177.714C118.005 177.714 102.587 162.279 102.587 143.313C102.587 124.347 118.005 108.913 136.954 108.913Z"/><path fill="#00B46E" d="M136.952 117.514C122.72 117.514 111.18 129.065 111.18 143.313C111.18 157.562 122.72 169.113 136.952 169.113C151.188 169.113 162.727 157.562 162.727 143.313C162.727 129.065 151.188 117.514 136.952 117.514ZM136.952 126.114C146.427 126.114 154.137 133.83 154.137 143.313C154.137 152.796 146.427 160.515 136.952 160.515C127.48 160.515 119.77 152.796 119.77 143.313C119.77 133.83 127.48 126.114 136.952 126.114Z"/><path fill="#00B46E" d="M145.544 143.313C145.544 148.062 141.699 151.914 136.952 151.914C132.209 151.914 128.362 148.062 128.362 143.313C128.362 138.564 132.209 134.715 136.952 134.715C141.699 134.715 145.544 138.564 145.544 143.313Z"/><path fill="#508278" d="M184.735 116.096C187.675 121.193 200.938 119.038 189.299 125.765C177.657 132.493 165.841 133.814 162.899 128.717C159.961 123.621 167.012 114.035 178.649 107.306C190.291 100.58 181.795 111 184.735 116.096Z"/><path fill="#50616C" d="M136.954 145.43C136.36 145.43 135.785 145.122 135.465 144.571C134.989 143.747 135.271 142.696 136.095 142.22L185.195 113.845C186.014 113.367 187.065 113.651 187.543 114.475C188.017 115.298 187.734 116.349 186.913 116.825L137.813 145.202C137.542 145.356 137.247 145.43 136.954 145.43Z"/></svg>