<svg width="237" height="251" viewBox="0 0 237 251" fill="none" xmlns="http://www.w3.org/2000/svg">
<path d="M99.9251 242.261C99.1881 242.244 98.4929 242.057 97.8453 241.706C91.4496 238.398 76.5086 221.854 72.1954 216.017C72.0196 215.791 71.9079 215.534 71.8604 215.252C71.813 214.967 71.8381 214.688 71.9358 214.417C72.1256 214.057 72.4216 213.859 72.8291 213.823C74.0631 213.683 75.3026 213.608 76.5448 213.599C77.3349 213.555 78.1249 213.546 78.915 213.577C79.705 213.605 80.4923 213.669 81.2767 213.772C82.0584 213.876 82.8373 214.012 83.6078 214.185C84.3783 214.361 85.1404 214.571 85.8913 214.816C86.6423 215.062 87.3821 215.341 88.1079 215.654C88.8338 215.969 89.5428 216.315 90.2352 216.695C90.9303 217.075 91.6031 217.485 92.2591 217.929C92.9124 218.37 93.5461 218.842 94.1575 219.344C94.7688 219.847 95.3551 220.375 95.9162 220.93C96.4801 221.486 97.0133 222.069 97.5214 222.675C98.0295 223.278 98.5097 223.906 98.9591 224.556C99.4086 225.207 99.8273 225.877 100.215 226.566C100.601 227.256 100.955 227.962 101.279 228.685C101.6 229.406 101.888 230.143 102.139 230.891C102.393 231.639 102.611 232.398 102.795 233.169C102.976 233.936 103.124 234.713 103.233 235.497C103.429 236.505 103.42 237.515 103.208 238.52C102.996 239.525 102.594 240.452 102.008 241.295C101.449 241.912 100.757 242.236 99.9251 242.261Z" fill="#82FF87"/>
<path d="M147.652 54.3767C146.808 54.4102 145.971 54.3432 145.145 54.1729C144.315 54.0026 143.523 53.7346 142.761 53.3661C141.998 53.0004 141.292 52.5482 140.642 52.0066C139.991 51.4678 139.416 50.8564 138.916 50.1753C138.325 49.201 137.842 48.1764 137.465 47.1016C137.085 46.0269 136.823 44.9241 136.677 43.7935C136.53 42.6629 136.502 41.5295 136.591 40.3961C136.68 39.2599 136.884 38.1432 137.208 37.0516C137.579 36.122 138.062 36.122 138.249 36.122C138.447 36.0746 138.646 36.0746 138.844 36.122C144.081 39.9019 148.442 44.511 151.928 49.9519C152.202 50.3428 152.369 50.7727 152.428 51.2473C152.489 51.7219 152.434 52.1825 152.261 52.6291C152.034 53.0535 151.713 53.3941 151.3 53.6481C150.887 53.8994 150.44 54.0306 149.957 54.0417C149.198 54.212 148.43 54.3237 147.652 54.3767Z" fill="#C8FAC8"/>
<path d="M140.516 114.339C140.069 114.339 139.734 113.967 139.623 113.336C139.603 113.038 139.603 112.742 139.623 112.443C138.601 105.109 136.557 98.0687 133.489 91.3269L132.375 88.8004C130.592 84.7469 129.402 82.0697 130.703 79.6912C131.074 79.2166 131.499 78.7951 131.979 78.4266C132.456 78.0609 132.976 77.7594 133.531 77.5249C134.089 77.2904 134.665 77.1312 135.262 77.0447C135.859 76.9582 136.46 76.947 137.06 77.014C138.955 77.0056 140.764 77.402 142.487 78.206C146.203 80.0625 148.581 84.2277 149.028 90.6597C149.17 92.6808 149.125 94.6992 148.891 96.712C148.659 98.7276 148.24 100.701 147.64 102.639C147.04 104.573 146.264 106.438 145.318 108.23C144.368 110.023 143.266 111.712 142.001 113.3C141.298 114.191 140.739 114.339 140.516 114.339Z" fill="#C8FAC8"/>
<path d="M57.4779 89.3199C56.981 89.3729 56.4813 89.3841 55.9816 89.3506C55.4819 89.3171 54.9906 89.2445 54.5048 89.1272C54.0163 89.01 53.5445 88.8509 53.0866 88.6527C52.626 88.4544 52.1877 88.2172 51.769 87.9436C51.3502 87.67 50.9566 87.3601 50.5909 87.0195C50.2252 86.6789 49.893 86.3077 49.5887 85.9084C49.2872 85.5092 49.022 85.0877 48.7931 84.6438C48.5614 84.1999 48.3715 83.7393 48.2208 83.2619C47.6652 80.5094 51.0096 77.8712 54.9124 74.859L55.5824 74.3398C60.7386 70.5012 65.1494 65.9397 68.8149 60.6578C68.9545 60.4094 69.1164 60.1721 69.2979 59.9515C69.4821 59.7003 69.7306 59.5635 70.0404 59.5439C70.2275 59.5439 70.8947 59.5439 71.3051 61.2162C72.3464 64.9319 74.1665 74.8227 69.1108 82.4049C68.5246 83.4322 67.8155 84.3674 66.9864 85.2105C66.1572 86.0536 65.236 86.7794 64.2198 87.3852C63.2036 87.991 62.1289 88.4572 60.9926 88.7839C59.8564 89.1133 58.6979 89.2919 57.5142 89.3199H57.4779Z" fill="#00B46E"/>
<path d="M108.92 222.56C108.588 222.56 108.214 222.262 107.881 221.779C105.969 218.973 104.467 215.966 103.37 212.753C102.27 209.543 101.62 206.243 101.413 202.857C101.313 201.598 101.374 200.347 101.595 199.105C101.812 197.863 102.184 196.668 102.708 195.52C103.23 194.373 103.889 193.309 104.685 192.327C105.478 191.347 106.382 190.484 107.396 189.733C108.336 189.172 109.353 188.873 110.444 188.84C110.871 188.845 111.284 188.915 111.686 189.052C112.088 189.192 112.46 189.39 112.797 189.647C113.135 189.906 113.426 190.211 113.666 190.562C113.906 190.914 114.082 191.294 114.199 191.704C114.746 193.664 115.036 195.66 115.067 197.695C115.098 199.73 114.872 201.735 114.386 203.711C113.381 208.767 112.044 214.345 110.372 220.291C110.037 221.703 109.478 222.56 108.92 222.56Z" fill="#C8FAC8"/>
<path d="M51.0095 133.523C47.3245 133.442 43.7149 132.892 40.1722 131.871C36.6324 130.852 33.2824 129.394 30.1194 127.502C29.7119 127.239 29.4885 127.016 29.4885 126.795C29.4913 126.402 29.6532 126.092 29.9715 125.866C36.3309 120.592 43.3436 116.416 51.0095 113.337C53.9491 112.262 56.9864 111.715 60.1159 111.701C61.7853 111.631 63.4268 111.81 65.0432 112.234C66.6568 112.658 68.1754 113.312 69.5936 114.191C70.2134 114.565 70.7549 115.028 71.2212 115.578C71.6902 116.131 72.0559 116.74 72.3239 117.412C72.5919 118.082 72.7482 118.778 72.7901 119.501C72.8319 120.221 72.7566 120.93 72.5695 121.628C71.9833 122.973 71.2463 124.233 70.3585 125.402C69.468 126.569 68.4546 127.616 67.31 128.537C66.1682 129.461 64.9315 130.235 63.6027 130.857C62.2711 131.48 60.8864 131.935 59.4487 132.222C56.6933 133.035 53.8821 133.47 51.0095 133.523Z" fill="#508278"/>
<path d="M172.444 121.516C172.134 121.499 171.858 121.393 171.612 121.203C171.369 121.014 171.199 120.771 171.107 120.475C170.872 119.417 170.758 118.348 170.764 117.264C170.769 116.181 170.895 115.112 171.14 114.057C171.383 113.001 171.741 111.988 172.212 111.014C172.684 110.037 173.257 109.127 173.932 108.281C175.141 110.52 175.761 112.909 175.791 115.455C175.884 115.966 175.911 116.483 175.872 116.999C175.83 117.518 175.727 118.024 175.557 118.515C175.389 119.006 175.16 119.47 174.873 119.902C174.583 120.335 174.245 120.723 173.857 121.069C173.427 121.349 172.958 121.497 172.444 121.516Z" fill="#C8FAC8"/>
<path d="M82.0836 113.113C81.6258 113.113 81.1791 113.041 80.7464 112.89C80.3528 112.756 80.001 112.552 79.6911 112.273C79.3813 111.996 79.1384 111.67 78.9625 111.29C78.6694 110.609 78.6694 109.928 78.9625 109.247C79.6297 107.759 83.1612 103.856 91.0784 103.521C91.9354 103.521 92.4184 103.521 92.5663 103.931C92.7143 104.339 92.5663 104.526 92.5663 104.973C91.2291 107.293 89.4927 109.261 87.3626 110.883C86.634 111.541 85.8161 112.063 84.9116 112.446C84.0071 112.828 83.0635 113.049 82.0836 113.113Z" fill="#C8FAC8"/>
<path d="M124.012 184.267C122.546 184.329 121.172 184.008 119.885 183.302C119.363 183.008 118.942 182.609 118.626 182.101C118.308 181.59 118.135 181.037 118.102 180.44C118.118 179.742 118.305 179.097 118.663 178.5C119.02 177.902 119.503 177.433 120.109 177.093C121.382 176.244 122.78 175.848 124.31 175.904C125.899 175.976 127.445 176.28 128.944 176.811C130.446 177.344 131.837 178.081 133.118 179.027C133.78 179.416 134.187 179.985 134.346 180.736C134.313 181.116 134.129 181.386 133.788 181.554C130.753 183.271 127.496 184.175 124.012 184.267Z" fill="#82FF87"/>
<path d="M164.787 152.928C164.282 152.934 163.787 152.85 163.31 152.68C162.833 152.509 162.4 152.264 162.009 151.943C161.618 151.619 161.294 151.239 161.038 150.801C160.781 150.363 160.605 149.896 160.513 149.397C160.253 147.353 163.598 145.123 166.534 144.64C167.911 144.64 168.246 145.047 168.505 145.458C168.835 146.418 168.932 147.403 168.793 148.411C168.656 149.419 168.299 150.343 167.724 151.181C167.431 151.719 167.023 152.146 166.495 152.459C165.97 152.772 165.401 152.928 164.787 152.928Z" fill="#00B46E"/>
<path d="M109.219 250.701C107.583 250.701 105.947 249.81 105.762 248.805C106.368 248.054 107.102 247.462 107.965 247.03C108.828 246.594 109.741 246.357 110.706 246.315C111.968 246.315 112.192 246.614 112.34 246.762C112.49 246.91 112.563 248.582 111.672 249.735C111.357 250.075 110.986 250.329 110.556 250.497C110.126 250.667 109.679 250.734 109.219 250.701Z" fill="#C8FAC8"/>
<path d="M45.2866 168.952C44.6417 169.008 43.9968 169.008 43.352 168.952C43.0756 168.91 42.8132 168.827 42.5647 168.701C42.3135 168.575 42.0901 168.416 41.8947 168.218C41.6965 168.02 41.5346 167.796 41.409 167.548C41.2833 167.297 41.1996 167.034 41.1605 166.758C40.8981 165.382 41.1605 163.673 42.0901 163.338H42.6094C42.922 163.33 43.218 163.394 43.5027 163.525C45.549 164.393 47.4334 165.532 49.1502 166.945C49.2926 167.071 49.3875 167.224 49.435 167.406C49.4825 167.59 49.4741 167.769 49.4127 167.947C49.2619 168.318 47.5534 168.952 45.2866 168.952Z" fill="#C8FAC8"/>
<path d="M99.9641 48.7626C99.417 48.8184 98.8726 48.8184 98.3282 48.7626C98.1133 48.7374 97.9234 48.6593 97.7559 48.5253C97.5884 48.3913 97.4684 48.221 97.3986 48.0172C96.9882 46.4929 99.5538 43.2211 101.114 41.7722C101.55 41.2725 102.094 40.9878 102.75 40.918C103.189 40.9319 103.535 41.119 103.792 41.4763C104.272 42.1742 104.604 42.9391 104.785 43.7711C104.964 44.6002 104.981 45.4349 104.833 46.2696C104.573 47.6096 102.491 48.7626 99.9641 48.7626Z" fill="#00B46E"/>
<path d="M48.8906 105.344C48.363 105.394 47.8605 105.305 47.3803 105.079C46.9001 104.853 46.5121 104.52 46.2134 104.079C45.8728 103.233 45.75 102.357 45.8421 101.45C45.9342 100.542 46.2301 99.7103 46.7354 98.9482C46.9476 98.6132 47.2016 98.3117 47.4975 98.0465C47.7963 97.7813 48.1229 97.5608 48.4802 97.3877C48.8375 97.2118 49.2144 97.0918 49.6053 97.022C49.9961 96.9522 50.3897 96.9382 50.7861 96.9801C52.8157 97.0192 54.7 97.5663 56.4365 98.6132C56.657 98.7053 56.8608 98.8254 57.0478 98.9761C57.2321 99.1269 57.3912 99.3028 57.5252 99.501C57.6564 99.6992 57.7569 99.9141 57.8239 100.143C57.8937 100.372 57.9272 100.606 57.9244 100.844C57.6257 102.519 54.728 104.191 50.4902 105.157C49.9626 105.271 49.4294 105.336 48.8906 105.344Z" fill="#82FF87"/>
<path d="M92.3067 209.325C91.6171 209.314 90.9499 209.18 90.3106 208.923C89.6686 208.666 89.0963 208.306 88.5882 207.837C88.3453 207.611 88.1862 207.332 88.1108 207.008C88.0382 206.681 88.0606 206.363 88.1806 206.053C88.3341 205.674 88.5351 205.319 88.7864 204.993C89.0349 204.666 89.3224 204.378 89.6518 204.13C89.9784 203.881 90.333 203.68 90.7126 203.527C91.0951 203.373 91.4887 203.276 91.8963 203.228C92.1894 203.2 92.4686 203.256 92.7282 203.39C92.9906 203.524 93.1972 203.717 93.348 203.971C93.7276 204.68 93.9566 205.431 94.0347 206.232C94.1101 207.03 94.0319 207.815 93.7919 208.58C93.6439 209.066 93.0856 209.325 92.3067 209.325Z" fill="#00B46E"/>
<path d="M74.7973 99.6182C73.9431 99.6182 73.3484 99.6182 73.1642 99.1353C72.9771 98.6523 73.1642 98.7249 73.1642 98.429C76.0312 92.5944 78.2004 86.5086 79.6688 80.1743C82.0836 71.1041 84.3504 62.517 90.2604 58.2039C91.8237 57.0174 93.5322 56.1073 95.3886 55.4708C97.2451 54.8343 99.1546 54.5077 101.114 54.4854C102.708 54.4854 104.269 54.7087 105.799 55.1554C106.505 55.4541 106.988 55.8979 106.988 56.3083C106.988 56.7159 106.692 56.9029 106.17 57.0509C105.07 57.4613 103.998 57.9386 102.954 58.4802C101.91 59.019 100.905 59.622 99.9363 60.2864C98.9648 60.9509 98.0407 61.6711 97.1586 62.4472C96.2764 63.2233 95.4445 64.0496 94.6628 64.929C93.8839 65.8056 93.1581 66.7296 92.4881 67.6955C91.8209 68.6614 91.2123 69.6636 90.6679 70.7049C90.1208 71.7462 89.6378 72.8154 89.2219 73.9154C88.8059 75.0125 88.4597 76.1347 88.1806 77.2765C87.7339 78.8008 87.6585 79.7667 87.9572 80.2134L88.4039 80.3976C88.7808 80.3948 89.1325 80.2943 89.4591 80.1017C89.783 79.9091 90.0398 79.6494 90.2241 79.32C91.0113 77.9214 91.9186 76.6037 92.9431 75.367C93.9677 74.1303 95.0955 72.9941 96.3211 71.9612C97.5494 70.9255 98.8615 70.0098 100.252 69.2086C101.645 68.4102 103.096 67.7402 104.61 67.2014C105.631 66.9306 106.673 66.7938 107.731 66.791C108.289 66.7268 108.844 66.7352 109.397 66.8134C109.953 66.8915 110.489 67.0367 111.005 67.2516C111.522 67.4666 112.005 67.743 112.451 68.0808C112.898 68.4186 113.294 68.8066 113.641 69.2449C113.931 69.6609 114.16 70.1075 114.336 70.5849C114.509 71.0595 114.62 71.5508 114.668 72.0533C114.718 72.5586 114.701 73.0611 114.623 73.5608C114.542 74.0605 114.403 74.5435 114.199 75.0069C107.993 92.2203 82.2706 98.8003 76.249 99.5429L74.7973 99.6182Z" fill="#82FF87"/>
<path d="M118.512 241.706C118.099 241.703 117.767 241.541 117.507 241.223C116.851 239.528 116.642 237.781 116.876 235.98C117.395 224.344 122.339 203.488 133.9 193.748C136.359 191.687 139.061 190.012 142.001 188.728C143.83 188.072 145.711 187.737 147.651 187.726C148.522 187.623 149.382 187.667 150.236 187.857C151.094 188.05 151.892 188.377 152.632 188.84C152.461 188.993 152.263 189.094 152.037 189.139C151.094 189.404 150.167 189.728 149.259 190.11C148.352 190.49 147.473 190.923 146.621 191.411C145.767 191.9 144.946 192.436 144.159 193.025C143.372 193.614 142.621 194.247 141.912 194.926C141.203 195.607 140.535 196.327 139.913 197.087C139.29 197.849 138.718 198.644 138.193 199.476C137.668 200.305 137.197 201.168 136.775 202.056C136.356 202.943 135.991 203.856 135.684 204.789C135.469 205.241 135.362 205.718 135.362 206.221C135.362 206.721 135.469 207.198 135.684 207.653L136.613 207.985C137.456 207.938 138.151 207.592 138.693 206.947C140.535 204.833 142.671 203.086 145.108 201.704C147.543 200.319 150.139 199.378 152.894 198.879H153.896C155.345 198.879 156.239 199.214 156.61 199.845C156.981 200.476 156.61 202.187 155.345 204.23C145.05 217.131 127.691 235.609 119.255 241.407C119.034 241.572 118.786 241.672 118.512 241.706Z" fill="#00B46E"/>
<path d="M74.6493 50.4346C73.3484 50.4346 72.4578 50.0633 72.2345 49.505C72.0111 48.9466 72.4941 48.1678 73.4237 47.4615L75.0596 46.1606C77.3628 44.7229 79.4091 42.9864 81.2013 40.9485C82.9908 38.9106 84.4508 36.6577 85.5786 34.1871C85.7796 33.746 85.8774 33.2798 85.8774 32.7941C85.8774 32.3083 85.7796 31.8421 85.5786 31.401L84.7607 31.1023C84.2331 31.1414 83.7752 31.3396 83.3844 31.6969C82.2314 32.6266 76.2489 37.311 72.7174 37.4226C71.6008 37.4226 70.8582 37.1267 70.5232 36.493C70.3585 35.9291 70.3445 35.3624 70.4841 34.7901C70.6237 34.2178 70.8973 33.7209 71.3049 33.2966C77.829 24.8183 84.8305 16.7504 92.3066 9.09561C92.7309 8.76061 93.2139 8.59869 93.7554 8.61265C94.7576 8.61265 98.0658 9.20727 99.1824 17.1998C99.4141 18.5901 99.5426 19.9915 99.5677 21.4041C99.59 22.8139 99.5119 24.2209 99.3276 25.6195C99.1461 27.0181 98.8586 28.3972 98.4734 29.7539C98.0853 31.1107 97.5996 32.4311 97.0189 33.7181C96.4354 35.0023 95.7626 36.239 94.9977 37.4254C94.23 38.6091 93.3841 39.7341 92.4517 40.7922C91.5193 41.853 90.5171 42.8385 89.4395 43.7514C88.3619 44.6614 87.2229 45.4906 86.0253 46.2331C84.3419 47.4112 82.5357 48.3576 80.6095 49.0695C78.6804 49.7814 76.6956 50.2364 74.6493 50.4346Z" fill="#C8FAC8"/>
<path d="M120.592 50.6943C120.234 50.7334 119.874 50.7334 119.514 50.6943C118.746 50.3509 118.004 49.9545 117.292 49.505C116.577 49.0556 115.899 48.5615 115.254 48.0171C114.612 47.4755 114.006 46.8893 113.445 46.2611C112.884 45.633 112.367 44.9686 111.898 44.2707C111.429 43.57 111.011 42.8413 110.642 42.082C110.277 41.3227 109.964 40.5438 109.704 39.7398C109.447 38.9386 109.246 38.1234 109.104 37.2915C108.959 36.4624 108.872 35.6249 108.847 34.7846C108.847 33.3329 110.332 32.2916 112.563 32.0683H113.417C114.604 32.0599 115.776 32.1744 116.937 32.4117C118.102 32.6462 119.224 33.0007 120.313 33.4697C121.401 33.9415 122.429 34.5194 123.397 35.2033C124.363 35.8873 125.251 36.6662 126.055 37.5344C127.085 38.986 127.828 40.5745 128.286 42.2942C128.584 43.5197 128.509 44.9323 127.842 45.231C127.593 45.3008 127.345 45.3008 127.096 45.231C125.444 44.9351 123.908 44.3405 122.487 43.4443C121.921 43.1233 121.315 42.9251 120.667 42.8497C120.22 42.8497 119.737 42.8497 119.626 43.6314C119.514 44.413 119.626 44.1506 120.555 45.9373C121.485 47.7212 122.339 49.0584 122.08 49.653C121.82 50.2476 121.633 50.6943 120.592 50.6943Z" fill="#508278"/>
<path d="M62.7178 162.408C61.093 162.414 59.4822 162.266 57.8854 161.962C54.3958 161.322 51.1994 159.985 48.296 157.947C46.9197 156.87 46.3251 156.127 46.4368 155.605C46.5485 155.086 46.8109 155.047 47.3664 154.862C49.0777 154.399 50.8113 154.064 52.5701 153.857C54.5773 153.562 56.9949 153.079 57.5895 152.892C58.1841 152.705 58.4075 152.333 58.4437 152.037C58.48 151.739 58.4437 151.18 57.7012 150.773C57.1261 150.407 56.5203 150.108 55.8782 149.879L52.1625 148.802L51.1966 148.542C49.8566 148.171 48.631 147.836 46.9197 147.241C46.6155 147.149 46.3307 147.012 46.0655 146.831C45.9203 146.742 45.8115 146.619 45.7389 146.462C45.6663 146.309 45.6384 146.147 45.6579 145.977C45.6579 145.122 49.0023 143.486 50.602 143.151C53.0475 142.599 55.5265 142.314 58.0362 142.297C59.365 142.205 60.6882 142.264 62.0031 142.47C63.3208 142.674 64.5966 143.026 65.8361 143.517C67.0728 144.008 68.2425 144.631 69.3396 145.385C70.4395 146.139 71.4417 147.007 72.3462 147.984C77.9966 154.639 74.2781 158.319 73.0525 159.547C71.5311 160.574 69.8868 161.334 68.1197 161.825C66.3497 162.313 64.5519 162.509 62.7178 162.408Z" fill="#82FF87"/>
<path d="M157.205 74.8226C154.614 74.7696 152.135 74.2112 149.77 73.1476C146.055 71.5508 142.336 68.2036 142.336 66.1238C142.336 65.0434 143.118 62.7766 147.579 61.8107C149.07 61.4701 150.583 61.297 152.113 61.2886C153.238 61.2244 154.354 61.2942 155.46 61.5036C156.568 61.7102 157.635 62.048 158.659 62.5197C159.684 62.9887 160.636 63.575 161.515 64.2813C162.394 64.9848 163.176 65.7832 163.86 66.6793C164.228 67.1595 164.48 67.6955 164.611 68.2873C164.739 68.882 164.737 69.471 164.603 70.0628C164.505 70.2666 164.346 70.3671 164.12 70.3615C163.866 70.3448 163.628 70.2722 163.413 70.1382C161.06 68.9517 158.581 68.1589 155.979 67.7597H155.756C155.049 67.7597 154.79 67.7597 154.603 68.0919C153.824 69.0969 154.901 70.0628 155.792 70.8082L156.275 71.2521C157.196 72.0421 158.05 72.8964 158.841 73.8176C158.913 74.0158 158.913 74.214 158.841 74.4122C158.841 74.4122 158.246 74.8226 157.093 74.8226H157.205Z" fill="#82FF87"/>
<path d="M152.632 175.345C150.848 175.32 149.078 175.13 147.328 174.779C145.577 174.427 143.872 173.919 142.213 173.257C140.555 172.593 138.972 171.783 137.462 170.828C135.952 169.874 134.542 168.79 133.23 167.576C132.565 166.951 132.219 166.183 132.188 165.27C132.286 164.804 132.496 164.394 132.822 164.045C134.081 162.942 135.424 161.951 136.848 161.071C138.272 160.195 139.757 159.438 141.306 158.805C142.855 158.174 144.447 157.671 146.08 157.303C147.713 156.934 149.363 156.702 151.035 156.61C151.63 156.571 152.224 156.571 152.819 156.61C154.776 156.778 156.646 157.28 158.422 158.118C160.2 158.955 161.777 160.075 163.154 161.479C164.527 163.302 163.637 164.38 163.525 164.491C163.413 164.603 162.26 165.421 159.806 165.421H155.384C152.671 165.421 152.261 165.94 152.149 166.311C152.037 166.683 152.372 167.205 152.855 167.501L154.714 168.693C156.61 169.882 158.729 171.219 158.952 172.224C159.106 172.813 159.008 173.36 158.653 173.86C158.104 174.396 157.47 174.801 156.755 175.08C156.038 175.356 155.298 175.482 154.53 175.457L152.632 175.345Z" fill="#C8FAC8"/>
<path d="M125.352 70.6214C124.651 70.5907 123.992 70.4036 123.381 70.063C121.521 69.0971 120.703 64.784 121.893 61.9225C122.253 61.2134 122.68 60.5518 123.18 59.9349C123.679 59.3207 124.24 58.7624 124.857 58.2654C125.477 57.7685 126.142 57.3442 126.851 56.9896C127.56 56.6323 128.3 56.3559 129.067 56.1605C129.737 55.9819 130.418 55.8841 131.111 55.8618C132.747 55.8618 133.528 56.6435 133.752 57.9807C134.039 58.955 134.193 59.9488 134.209 60.965C134.226 61.9784 134.109 62.9778 133.852 63.9604C133.598 64.9431 133.216 65.8755 132.705 66.7521C132.197 67.6315 131.577 68.4243 130.851 69.1334C129.444 70.1579 127.87 70.6772 126.13 70.6967L125.352 70.6214Z" fill="#00B46E"/>
<path d="M161.071 193.712C160.217 193.712 159.918 192.782 159.846 192C158.765 182.855 164.192 179.957 168.913 179.139H169.954C170.303 179.103 170.641 179.148 170.968 179.273C171.294 179.396 171.576 179.589 171.813 179.845C171.936 180.083 171.998 180.337 171.998 180.608C171.998 180.876 171.936 181.13 171.813 181.37C169.413 185.825 166.317 189.731 162.52 193.078C162.096 193.424 161.613 193.636 161.071 193.712Z" fill="#508278"/>
<path d="M60.2277 53.1845C59.929 53.1957 59.6331 53.165 59.3427 53.0868C59.0524 53.0086 58.7788 52.8914 58.5248 52.7323C58.2679 52.5731 58.0418 52.3805 57.8464 52.1544C57.6482 51.9255 57.489 51.677 57.3662 51.4006C56.512 49.4688 58.7034 46.3449 61.0819 44.8961C61.5844 44.5834 62.1288 44.4075 62.7178 44.374C63.1813 44.374 63.5665 44.5471 63.8708 44.8961C64.2337 45.4404 64.4822 46.0379 64.6106 46.6799C64.739 47.3248 64.739 47.9697 64.6134 48.6118C64.6106 48.9049 64.5799 49.1924 64.5213 49.4772C64.4626 49.7647 64.3761 50.0411 64.2672 50.3119C64.1556 50.5799 64.0215 50.8367 63.8624 51.0824C63.7033 51.3253 63.5218 51.5514 63.3208 51.7636C63.1198 51.9729 62.8993 52.1628 62.662 52.3331C62.4247 52.5006 62.1735 52.6457 61.9083 52.7686C61.6458 52.8886 61.3723 52.9863 61.0875 53.0561C60.8056 53.1259 60.518 53.1706 60.2277 53.1845Z" fill="#82FF87"/>
<path d="M44.5051 71.7353C44.3376 71.7437 44.1701 71.7297 44.0054 71.6962C43.8407 71.6655 43.6815 71.6125 43.528 71.5427C43.3772 71.4701 43.2349 71.3835 43.1037 71.2803C42.9697 71.1742 42.8524 71.0569 42.7491 70.9229C42.6458 70.7917 42.5593 70.6465 42.4895 70.4958C42.4197 70.3423 42.3694 70.1831 42.3387 70.0156C42.308 69.8509 42.2941 69.6862 42.3024 69.5159C42.3108 69.3484 42.3387 69.1837 42.3862 69.0218C42.6235 67.947 42.9669 66.9057 43.4135 65.9007C43.8602 64.8929 44.4046 63.941 45.0439 63.0448C45.6804 62.1459 46.4034 61.3224 47.2074 60.5714C48.0114 59.8177 48.8824 59.1533 49.8204 58.5754C50.1973 58.4051 50.5937 58.3185 51.0097 58.3158C51.4507 58.3102 51.8779 58.3772 52.2938 58.5223C52.7098 58.6675 53.0867 58.8797 53.4272 59.1588C53.7678 59.438 54.0498 59.7674 54.2731 60.1471C54.4964 60.524 54.6472 60.9315 54.7282 61.3643C54.8426 62.0287 54.8677 62.6959 54.8007 63.3659C54.7365 64.0359 54.583 64.6863 54.3401 65.3145C54.0972 65.9426 53.7762 66.5288 53.3742 67.0676C52.9722 67.6092 52.506 68.0866 51.9756 68.5025C51.018 69.4294 49.9349 70.1692 48.7233 70.7247C47.5117 71.2803 46.2415 71.6153 44.9127 71.7353H44.5051Z" fill="#508278"/>
<path d="M32.4253 167.986C32.2215 167.983 32.0457 167.908 31.9033 167.763C20.2034 155.692 9.99429 142.47 1.27592 128.096C1.03304 127.552 0.857167 126.985 0.751084 126.399C0.645002 125.813 0.608709 125.221 0.645001 124.626C0.681293 124.029 0.787376 123.448 0.963251 122.879C1.13913 122.306 1.37921 121.767 1.6835 121.254C9.05909 108.998 17.5206 97.5497 27.0709 86.9051C29.8598 83.8566 32.2746 82.2207 34.0975 82.2207C35.9177 82.2207 36.476 83.2229 37.107 85.2301C37.4755 87.2569 37.6625 89.3004 37.6737 91.3578C37.682 93.4153 37.5118 95.4588 37.1628 97.4883C36.8166 99.5179 36.2918 101.5 35.5967 103.437C34.9015 105.375 34.0417 107.237 33.02 109.023C31.719 110.816 30.2785 112.485 28.6985 114.035C27.1184 115.584 25.421 116.994 23.6037 118.258C21.7891 119.523 19.8796 120.628 17.8808 121.575C15.8791 122.521 13.8133 123.294 11.6833 123.895H11.1249C10.7676 123.981 10.4689 124.165 10.2288 124.445C9.98871 124.727 9.85471 125.05 9.824 125.419C9.824 126.385 10.681 127.945 13.3555 129.137L14.6201 129.693C17.4676 130.69 20.1308 132.044 22.6154 133.752C25.1 135.461 27.3166 137.468 29.2652 139.768C36.141 149.101 33.7263 162.744 32.9809 167.205C33.1037 167.4 33.0953 167.593 32.9613 167.78C32.8273 167.967 32.6487 168.037 32.4253 167.986ZM22.0906 98.5408C21.6355 98.5799 21.2391 98.7557 20.9013 99.06C18.4112 101.6 16.1443 104.328 14.1008 107.24C13.6151 107.91 9.34104 114.043 9.71234 116.086C9.74863 116.248 9.81284 116.396 9.90217 116.536C9.99429 116.673 10.106 116.79 10.24 116.885C10.374 116.98 10.5191 117.05 10.6783 117.091C10.8374 117.133 10.9993 117.147 11.164 117.128C12.155 116.991 13.0986 116.701 13.9948 116.254C14.8937 115.81 15.6949 115.232 16.404 114.526C17.8808 113.214 19.1565 111.729 20.2313 110.068C21.3033 108.409 22.1325 106.634 22.7243 104.749C23.1682 103.261 23.6902 100.026 22.7243 98.9484L22.018 98.5408H22.0906Z" fill="#C8FAC8"/>
<path d="M176.718 169.882C176.506 169.885 176.313 169.82 176.146 169.689C175.978 169.555 175.872 169.385 175.828 169.176C175.177 166.973 174.775 164.726 174.619 162.434C174.463 160.142 174.555 157.861 174.898 155.591C175.241 153.322 175.828 151.113 176.657 148.972C177.483 146.831 178.533 144.804 179.806 142.892C184.004 137.055 189.208 134.489 196.419 130.958L198.613 129.844C200.249 129.104 201.55 127.976 202.516 126.46C202.692 126.189 202.801 125.894 202.84 125.575C202.879 125.254 202.845 124.942 202.739 124.637C202.563 124.35 202.332 124.121 202.041 123.948C201.754 123.777 201.438 123.685 201.103 123.671C199.526 123.456 197.98 123.107 196.461 122.63C194.945 122.15 193.479 121.547 192.064 120.821C190.649 120.092 189.306 119.249 188.033 118.292C186.763 117.337 185.579 116.279 184.487 115.121C178.949 108.541 180.065 96.0506 181.107 92.4801C181.626 90.5846 182.519 89.9146 183.114 89.9146C192.469 99.4034 200.696 109.788 207.795 121.07C208.138 121.899 208.384 122.756 208.529 123.641C208.677 124.528 208.722 125.419 208.663 126.315C208.605 127.211 208.445 128.088 208.186 128.948C207.926 129.807 207.572 130.625 207.125 131.404C198.672 145.257 188.761 157.97 177.388 169.547C177.198 169.726 176.975 169.837 176.718 169.882ZM198.278 134.154C197.444 134.19 196.637 134.358 195.861 134.665C195.082 134.972 194.378 135.396 193.745 135.938C192.505 136.851 191.458 137.945 190.604 139.221C189.747 140.5 189.136 141.884 188.761 143.375C188.432 144.218 188.267 145.092 188.267 145.996C188.267 146.901 188.432 147.775 188.761 148.618C189.11 148.852 189.496 148.978 189.914 148.989C190.316 148.986 190.677 148.861 190.992 148.618C193.156 146.758 195.076 144.676 196.754 142.37C197.647 141.144 200.472 137.055 200.026 134.936C199.987 134.564 199.28 134.154 198.278 134.154Z" fill="#82FF87"/>
<path d="M128.696 28.1291C127.038 28.143 125.391 28.009 123.758 27.7243C122.122 27.4395 120.528 27.0096 118.973 26.4345C117.415 25.8594 115.924 25.1503 114.498 24.3045C113.071 23.4586 111.734 22.4899 110.483 21.4011C109.431 20.117 108.529 18.7379 107.778 17.2583C107.024 15.7815 106.438 14.2405 106.019 12.6381C105.598 11.0329 105.355 9.40255 105.285 7.74709C105.218 6.08884 105.327 4.44455 105.612 2.81143C105.682 2.50155 105.796 2.20843 105.958 1.93484C106.123 1.66126 106.324 1.42118 106.567 1.2118C106.807 1.00522 107.075 0.840509 107.371 0.720467C107.664 0.597634 107.971 0.527843 108.289 0.508301C109.04 0.527843 109.699 0.787467 110.26 1.28718C118.459 8.69068 125.796 16.8675 132.264 25.8231C132.454 26.1833 132.454 26.5434 132.264 26.9007C132.055 27.2246 131.781 27.4814 131.446 27.6712C131.114 27.8611 130.754 27.9643 130.368 27.9811L128.696 28.1291ZM112.008 7.83084C111.338 8.05418 110.779 9.09547 111.151 11.1753C111.416 12.2389 111.871 13.216 112.513 14.1009C113.155 14.9887 113.939 15.7229 114.869 16.3063C115.573 16.6525 116.315 16.8396 117.1 16.8647C117.641 16.9149 118.099 16.7418 118.473 16.3426C118.699 15.8848 118.699 15.427 118.473 14.9691C117.811 13.3276 116.857 11.876 115.612 10.6197C113.752 8.46176 112.862 7.71918 112.116 7.71918L112.008 7.83084Z" fill="#82FF87"/>
<path d="M67.3268 203.898C65.0571 203.962 62.9383 203.429 60.9701 202.298C56.2913 198.937 52.0647 195.076 48.296 190.716C44.5272 186.355 41.3196 181.615 38.6703 176.498C38.5028 176.224 38.5028 175.953 38.6703 175.68C68.9627 175.42 83.9791 168.952 92.6779 164.12C99.3304 160.401 120.555 146.2 115.24 118.579C114.718 115.975 113.828 114.45 112.862 114.45C111.896 114.45 111.485 115.455 111.301 117.239C109.219 137.018 98.7358 150.29 90.2994 150.29C89.7187 150.279 89.1492 150.2 88.5881 150.052C88.027 149.904 87.4938 149.689 86.9857 149.413C86.4776 149.134 86.0086 148.799 85.5815 148.405C85.1571 148.014 84.7831 147.576 84.462 147.093C81.0813 142.445 81.8993 132.222 86.285 124.266C89.6908 118.925 93.7555 114.14 98.4762 109.917C105.64 103.267 111.996 95.9192 117.543 87.8708C117.711 87.5889 117.937 87.3683 118.224 87.2092C118.509 87.0501 118.816 86.9719 119.143 86.9775C120.008 87.1087 120.793 87.4269 121.502 87.9406C122.211 88.4515 122.764 89.0991 123.157 89.878C139.251 115.455 124.048 143.076 119.439 148.578C119.068 149.025 118.92 149.396 119.031 149.695C119.143 149.991 119.478 150.103 119.961 150.103C121.664 150.064 123.235 149.592 124.682 148.69C129.187 145.862 133.35 142.596 137.169 138.894C140.99 135.192 144.385 131.133 147.355 126.72C152.336 119.285 160.03 101.812 157.316 84.8977C157.316 84.2277 157.093 83.8564 157.316 83.781C158.059 83.781 158.804 84.5236 159.251 85.4532C160.8 89.0238 161.802 92.7423 162.26 96.6059V96.8684H162.891C163.265 96.8684 163.86 96.8684 164.304 95.7517C167.402 89.6156 169.655 83.1836 171.071 76.4585V75.5288C171.096 74.9119 171.221 74.3173 171.442 73.745C171.964 73.7226 172.397 73.9069 172.743 74.3005C173.176 74.736 173.547 75.219 173.854 75.7522C174.164 76.2854 174.396 76.8465 174.557 77.4411C174.717 78.0358 174.798 78.6388 174.798 79.2529C174.8 79.8699 174.722 80.4729 174.563 81.0675C174.34 82.3321 172.966 86.2349 171.478 90.361C168.287 98.789 165.56 107.365 163.301 116.086C162.073 121.365 161.479 125.642 165.605 127.984C167.012 128.512 168.463 128.685 169.954 128.504C174.225 128.347 178.449 127.825 182.628 126.943C183.187 127.574 182.369 129.358 180.92 129.955L177.204 131.44C165.605 136.161 138.509 147.202 120.444 162.297C112.677 168.826 105.405 175.864 98.6241 183.413C95.7236 186.989 92.5076 190.261 88.9817 193.223C85.4558 196.187 81.6843 198.789 77.6615 201.034C74.4316 202.767 70.9866 203.722 67.3268 203.898ZM84.2387 175.049C82.9378 175.049 80.2996 175.867 77.2511 176.61L75.0206 177.129C73.8006 177.31 72.6309 177.659 71.5115 178.176C70.392 178.695 69.3675 179.362 68.4434 180.177C68.1252 180.518 67.8907 180.909 67.7427 181.35C67.592 181.791 67.5417 182.243 67.5864 182.707C67.6422 183.293 67.8153 183.843 68.1056 184.356C68.3988 184.867 68.784 185.297 69.2614 185.643C69.9007 186.112 70.5986 186.464 71.3579 186.701C72.1145 186.936 72.8906 187.042 73.6834 187.02C75.283 187.008 76.7961 186.634 78.2171 185.903C79.9507 185.082 81.5168 184.016 82.9182 182.709C84.3196 181.403 85.4921 179.915 86.4329 178.245C86.6451 177.824 86.7512 177.377 86.7512 176.908C86.7512 176.436 86.6451 175.99 86.4329 175.568C86.1258 175.317 85.7825 175.147 85.3972 175.055C85.012 174.962 84.6267 174.962 84.2387 175.049Z" fill="#508278"/>
<path d="M69.2223 136.572C68.9627 138.132 72.9408 140.028 74.613 138.95C76.2852 137.873 75.9893 133.375 73.8314 133.523C71.6762 133.671 69.5936 135.343 69.2223 136.572Z" fill="#00B46E"/>
<path d="M218.027 129.796C218.027 161.281 192.533 186.799 161.085 186.799C129.634 186.799 104.141 161.281 104.141 129.796C104.141 98.3145 129.634 72.7959 161.085 72.7959C192.533 72.7959 218.027 98.3145 218.027 129.796Z" fill="#EDF4E0"/>
<path d="M161.085 72.7959C129.634 72.7959 104.141 98.3145 104.141 129.796C104.141 161.281 129.634 186.799 161.085 186.799C192.533 186.799 218.027 161.281 218.027 129.796C218.027 98.3145 192.533 72.7959 161.085 72.7959ZM161.085 84.1943C186.204 84.1943 206.637 104.654 206.637 129.796C206.637 154.938 186.204 175.398 161.085 175.398C135.966 175.398 115.528 154.938 115.528 129.796C115.528 104.654 135.966 84.1943 161.085 84.1943Z" fill="#00B46E"/>
<path d="M161.082 95.5957C142.216 95.5957 126.918 110.908 126.918 129.796C126.918 148.685 142.216 163.997 161.082 163.997C179.954 163.997 195.249 148.685 195.249 129.796C195.249 110.908 179.954 95.5957 161.082 95.5957ZM161.082 106.997C173.642 106.997 183.862 117.226 183.862 129.796C183.862 142.367 173.642 152.599 161.082 152.599C148.525 152.599 138.305 142.367 138.305 129.796C138.305 117.226 148.525 106.997 161.082 106.997Z" fill="#00B46E"/>
<path d="M172.472 129.796C172.472 136.092 167.374 141.197 161.082 141.197C154.795 141.197 149.695 136.092 149.695 129.796C149.695 123.501 154.795 118.398 161.082 118.398C167.374 118.398 172.472 123.501 172.472 129.796Z" fill="#00B46E"/>
<path d="M224.425 93.7169C228.322 100.473 245.904 97.6168 230.475 106.533C215.042 115.453 199.378 117.203 195.478 110.447C191.584 103.691 200.93 90.9838 216.357 82.0645C231.789 73.1479 220.528 86.961 224.425 93.7169Z" fill="#508278"/>
<path d="M161.085 132.602C160.298 132.602 159.536 132.194 159.111 131.463C158.48 130.372 158.854 128.978 159.946 128.348L225.034 90.7327C226.12 90.0989 227.513 90.4758 228.146 91.5674C228.775 92.6589 228.4 94.0519 227.312 94.6829L162.224 132.301C161.864 132.504 161.473 132.602 161.085 132.602Z" fill="#50616C"/>
</svg>
