<svg xmlns="http://www.w3.org/2000/svg" width="449" height="328" fill="none" viewBox="0 0 449 328"><path fill="#508278" d="M47.0968 257.991C43.4405 258.099 40.0271 257.206 36.8565 255.312C29.3191 249.683 22.5103 243.216 16.439 235.913C10.3677 228.61 5.20037 220.67 0.932479 212.1C0.662644 211.642 0.662644 211.188 0.932479 210.73C49.7322 210.295 73.9229 199.461 87.9363 191.368C98.6533 185.14 132.846 161.355 124.283 115.094C123.442 110.732 122.008 108.179 120.451 108.179C118.895 108.179 118.234 109.862 117.938 112.85C114.583 145.977 97.6954 168.205 84.1047 168.205C83.1692 168.186 82.2518 168.055 81.3479 167.807C80.4439 167.56 79.5849 167.199 78.7664 166.737C77.9479 166.269 77.1924 165.708 76.5043 165.049C75.8207 164.394 75.2181 163.66 74.7009 162.851C69.2547 155.066 70.5724 137.944 77.6376 124.618C83.1243 115.674 89.6723 107.66 97.2771 100.585C108.817 89.4481 119.057 77.1417 127.993 63.6618C128.263 63.1896 128.627 62.8202 129.091 62.5537C129.549 62.2872 130.044 62.1563 130.57 62.1656C131.964 62.3854 133.228 62.9184 134.37 63.7787C135.513 64.6344 136.403 65.7191 137.037 67.0236C162.964 109.862 138.472 156.123 131.047 165.339C130.449 166.087 130.211 166.709 130.39 167.209C130.57 167.704 131.11 167.891 131.888 167.891C134.631 167.826 137.163 167.036 139.493 165.526C146.751 160.789 153.457 155.319 159.609 149.119C165.766 142.919 171.234 136.12 176.02 128.728C184.043 116.277 196.437 87.012 192.066 58.6823C192.066 57.5601 191.706 56.9382 192.066 56.812C193.262 56.812 194.463 58.0557 195.182 59.6127C197.678 65.5929 199.293 71.8208 200.03 78.292V78.7315H201.047C201.649 78.7315 202.607 78.7315 203.322 76.8612C208.314 66.5841 211.944 55.8114 214.224 44.5478V42.9908C214.264 41.9575 214.467 40.9615 214.822 40.003C215.663 39.9656 216.36 40.2742 216.918 40.9335C217.615 41.6629 218.213 42.4718 218.707 43.3648C219.207 44.2579 219.58 45.1977 219.841 46.1936C220.097 47.1895 220.228 48.1995 220.228 49.2281C220.232 50.2614 220.106 51.2714 219.85 52.2673C219.49 54.3853 217.277 60.9219 214.88 67.8325C209.74 81.9483 205.346 96.3119 201.708 110.919C199.729 119.76 198.771 126.923 205.418 130.846C207.685 131.73 210.023 132.02 212.425 131.716C219.306 131.454 226.11 130.58 232.842 129.102C233.742 130.159 232.424 133.147 230.09 134.147L224.104 136.635C205.418 144.541 161.768 163.033 132.666 188.315C120.155 199.251 108.439 211.038 97.5155 223.681C92.8428 229.671 87.662 235.151 81.982 240.112C76.3019 245.077 70.2262 249.435 63.7456 253.194C58.5423 256.098 52.9927 257.697 47.0968 257.991ZM74.3411 209.673C72.2454 209.673 67.9955 211.043 63.0845 212.287L59.4912 213.156C57.5259 213.46 55.6416 214.045 53.8382 214.91C52.0348 215.78 50.3843 216.897 48.8957 218.262C48.383 218.833 48.0052 219.487 47.7669 220.226C47.524 220.965 47.4431 221.722 47.515 222.498C47.605 223.48 47.8838 224.401 48.3515 225.262C48.8237 226.117 49.4443 226.837 50.2134 227.417C51.2432 228.203 52.3676 228.792 53.5908 229.189C54.8096 229.582 56.0598 229.76 57.337 229.722C59.914 229.704 62.3515 229.077 64.6406 227.852C67.4334 226.477 69.9563 224.691 72.2139 222.503C74.4716 220.315 76.3604 217.823 77.876 215.027C78.2178 214.321 78.3887 213.573 78.3887 212.787C78.3887 211.997 78.2178 211.249 77.876 210.543C77.3813 210.122 76.8281 209.837 76.2075 209.682C75.5869 209.528 74.9663 209.528 74.3411 209.673Z"/><path fill="#82FF87" d="M273.67 192C273.181 192.006 272.737 191.852 272.351 191.537C271.964 191.216 271.72 190.807 271.617 190.304C270.116 185.016 269.189 179.62 268.829 174.117C268.468 168.614 268.681 163.138 269.473 157.689C270.264 152.239 271.617 146.937 273.529 141.796C275.435 136.655 277.856 131.789 280.792 127.198C290.475 113.182 302.477 107.023 319.108 98.5436L324.168 95.8692C327.941 94.093 330.942 91.3851 333.169 87.7455C333.575 87.0953 333.826 86.3848 333.916 85.6207C334.006 84.8499 333.929 84.0992 333.684 83.3686C333.279 82.6782 332.744 82.1286 332.075 81.713C331.412 81.3042 330.684 81.083 329.911 81.0495C326.274 80.5333 322.707 79.6955 319.204 78.5493C315.708 77.3965 312.328 75.9487 309.063 74.206C305.799 72.4565 302.702 70.4323 299.766 68.1333C296.836 65.8409 294.107 63.3006 291.589 60.519C278.815 44.7206 281.39 14.7326 283.792 6.15981C284.989 1.60866 287.05 0 288.421 0C309.997 22.7826 328.971 47.7168 345.345 74.8025C346.137 76.7932 346.703 78.851 347.038 80.9757C347.379 83.1072 347.482 85.2454 347.347 87.3969C347.212 89.5485 346.845 91.6532 346.246 93.7176C345.647 95.7821 344.83 97.746 343.8 99.616C324.303 132.875 301.447 163.399 275.216 191.195C274.778 191.624 274.263 191.893 273.67 192ZM323.396 106.218C321.471 106.305 319.61 106.708 317.82 107.445C316.023 108.182 314.401 109.201 312.939 110.501C310.081 112.693 307.666 115.321 305.696 118.384C303.719 121.454 302.309 124.778 301.447 128.357C300.687 130.382 300.307 132.48 300.307 134.651C300.307 136.823 300.687 138.921 301.447 140.945C302.251 141.508 303.14 141.81 304.106 141.837C305.033 141.83 305.863 141.528 306.591 140.945C311.581 136.481 316.011 131.481 319.88 125.944C321.941 123.002 328.456 113.182 327.426 108.095C327.336 107.204 325.707 106.218 323.396 106.218Z"/><path fill="#82FF87" d="M126.425 241.989C125.044 240.482 124.083 239.433 124.603 238.295C125.119 237.152 125.298 237.604 125.8 237.106C140.318 232.344 154.134 225.928 167.239 217.858C186.508 206.852 204.719 196.398 221.578 199.565C226.115 200.326 230.418 201.808 234.497 204.012C238.576 206.216 242.215 209.035 245.421 212.454C247.997 215.266 250.141 218.395 251.857 221.846C252.493 223.595 252.521 225.194 251.826 225.884C251.135 226.57 250.34 226.363 249.246 225.691C246.773 224.441 244.231 223.354 241.626 222.423C239.026 221.488 236.38 220.73 233.689 220.14C230.993 219.544 228.279 219.126 225.539 218.876C222.798 218.626 220.054 218.549 217.301 218.65C214.557 218.752 211.818 219.026 209.099 219.47C206.384 219.919 203.702 220.532 201.059 221.324C198.41 222.111 195.818 223.059 193.282 224.176C190.751 225.289 188.291 226.567 185.905 227.996C182.601 229.774 180.843 231.267 180.569 232.545L180.979 233.643C181.593 234.303 182.331 234.755 183.186 235.007C184.035 235.254 184.89 235.27 185.746 235.041C189.388 234.076 193.087 233.458 196.838 233.184C200.589 232.91 204.337 232.988 208.067 233.411C211.807 233.835 215.479 234.609 219.084 235.713C222.688 236.826 226.169 238.26 229.527 240.022C231.638 241.369 233.552 242.976 235.267 244.837C236.278 245.714 237.162 246.708 237.923 247.815C238.688 248.927 239.309 250.117 239.779 251.39C240.25 252.662 240.562 253.98 240.712 255.336C240.862 256.693 240.845 258.045 240.662 259.393C240.427 260.606 240.04 261.761 239.515 262.875C238.991 263.979 238.339 265.003 237.565 265.932C236.79 266.872 235.912 267.688 234.939 268.391C233.961 269.089 232.917 269.656 231.803 270.076C192.611 288.099 139.889 253.796 128.899 244.423L126.425 241.989Z"/><path fill="#C8FAC8" d="M327.681 328C321.388 328 317.08 326.136 316 323.332C314.92 320.529 317.256 316.618 321.753 313.071L329.666 306.539C340.807 299.32 350.706 290.601 359.376 280.369C368.032 270.136 375.095 258.824 380.55 246.418C381.523 244.204 381.995 241.863 381.995 239.424C381.995 236.985 381.523 234.644 380.55 232.429L376.594 230.929C374.041 231.125 371.827 232.12 369.936 233.915C364.359 238.583 335.419 262.104 318.336 262.665C312.935 262.665 309.343 261.179 307.722 257.997C306.925 255.165 306.858 252.32 307.533 249.446C308.208 246.572 309.532 244.077 311.503 241.947C343.063 199.376 376.931 158.865 413.096 120.429C415.148 118.747 417.484 117.934 420.104 118.004C424.952 118.004 440.955 120.99 446.356 161.122C447.477 168.103 448.098 175.139 448.22 182.232C448.328 189.311 447.95 196.376 447.059 203.399C446.181 210.421 444.79 217.346 442.926 224.159C441.049 230.971 438.7 237.601 435.891 244.063C433.068 250.511 429.814 256.721 426.114 262.679C422.4 268.622 418.308 274.271 413.798 279.584C409.287 284.91 404.439 289.858 399.227 294.442C394.014 299.012 388.504 303.175 382.711 306.904C374.568 312.819 365.831 317.571 356.513 321.145C347.181 324.72 337.58 327.005 327.681 328Z"/></svg>