<svg width="462" height="351" viewBox="0 0 462 351" fill="none" xmlns="http://www.w3.org/2000/svg">
<path d="M387.766 86.7773C388.285 87.0074 388.656 87.4004 388.868 87.9428C406.143 132.895 418.396 179.283 425.625 227.114C425.675 228.83 425.531 230.533 425.187 232.211C424.843 233.889 424.315 235.506 423.598 237.051C422.879 238.603 421.998 240.035 420.95 241.36C419.9 242.693 418.72 243.867 417.402 244.903C385.668 269.503 352.001 290.766 316.391 308.698C306.055 313.774 298.159 315.495 293.494 313.503C288.836 311.515 288.459 308.234 288.95 302.196C290.134 296.392 291.799 290.742 293.93 285.247C296.067 279.755 298.647 274.495 301.67 269.468C304.685 264.438 308.108 259.729 311.92 255.326C315.732 250.923 319.886 246.9 324.376 243.255C329.585 239.901 335.023 237.026 340.693 234.623C346.362 232.221 352.185 230.319 358.163 228.934C364.134 227.547 370.18 226.687 376.288 226.349C382.404 226.015 388.502 226.211 394.583 226.939L396.012 227.549C397.017 227.709 397.975 227.544 398.882 227.063C399.792 226.574 400.475 225.857 400.94 224.909C401.954 222.335 401.398 217.24 395.805 211.141L393.151 208.278C386.91 202.511 381.515 195.993 376.949 188.725C372.384 181.458 368.817 173.687 366.245 165.428C358.441 133.045 378.936 99.327 385.525 88.2533C385.415 87.5983 385.639 87.0941 386.178 86.7421C386.717 86.3901 387.248 86.3993 387.766 86.7773ZM341.346 283.132C342.551 283.525 343.75 283.49 344.934 283.048C353.972 278.999 362.635 274.207 370.92 268.681C372.866 267.426 390.239 255.752 391.433 249.901C391.51 249.429 391.501 248.965 391.419 248.495C391.327 248.03 391.164 247.596 390.921 247.196C390.678 246.797 390.379 246.452 390.016 246.167C389.653 245.882 389.253 245.667 388.811 245.54C386.131 244.821 383.412 244.564 380.65 244.775C377.884 244.976 375.227 245.64 372.671 246.748C367.515 248.63 362.692 251.194 358.199 254.446C353.715 257.694 349.73 261.52 346.239 265.894C343.541 269.375 338.81 277.427 340.152 281.354L341.531 283.211L341.346 283.132Z" fill="#C8FAC8"/>
<path d="M289.725 136.878C282.904 136.905 276.141 136.201 269.438 134.753C254.788 131.712 241.369 125.35 229.18 115.655C223.402 110.528 220.906 106.996 221.375 104.512C221.844 102.042 222.945 101.856 225.278 100.979C232.462 98.7747 239.74 97.181 247.123 96.1982C255.55 94.7904 265.699 92.4928 268.195 91.603C270.692 90.7131 271.629 88.9467 271.782 87.5389C271.934 86.1179 271.782 83.4617 268.664 81.5226C266.25 79.7828 263.707 78.3617 261.011 77.2727L245.412 72.1462L241.357 70.911C235.732 69.1446 230.587 67.5509 223.402 64.722C222.125 64.2838 220.929 63.633 219.816 62.7697C219.207 62.3447 218.75 61.7604 218.445 61.0166C218.14 60.2862 218.023 59.5159 218.105 58.7057C218.105 54.6417 232.145 46.859 238.861 45.2653C249.127 42.6356 259.534 41.2809 270.071 41.2013C275.649 40.763 281.204 41.0419 286.724 42.0247C292.256 42.9942 297.612 44.6676 302.816 47.0051C308.007 49.3426 312.918 52.3042 317.524 55.8901C322.141 59.476 326.349 63.6064 330.146 68.2548C353.867 99.9169 338.256 117.421 333.111 123.265C326.724 128.152 319.821 131.765 312.402 134.102C304.972 136.427 297.424 137.356 289.725 136.878Z" fill="#82FF87"/>
<path d="M329.486 194.826C330.192 196.072 330.299 197.361 329.83 198.713C326.079 203.731 321.402 207.504 315.806 210.038C281.364 229.407 212.694 252.074 164.638 234.875C154.449 231.195 144.95 226.092 136.168 219.573C131.117 215.262 126.9 210.214 123.516 204.407C121.713 201.977 120.356 199.315 119.427 196.408C118.501 193.487 118.063 190.502 118.121 187.447C118.858 187.682 119.49 188.096 120.01 188.695C122.405 191.052 124.94 193.253 127.61 195.29C130.273 197.332 133.039 199.194 135.919 200.873C138.804 202.559 141.767 204.06 144.826 205.365C147.884 206.67 151.009 207.785 154.19 208.694C157.379 209.599 160.608 210.307 163.873 210.811C167.146 211.31 170.428 211.597 173.734 211.677C177.031 211.762 180.333 211.627 183.621 211.296C186.903 210.957 190.167 210.414 193.386 209.659C195.061 209.491 196.621 208.951 198.069 208.047C199.51 207.148 200.703 205.971 201.643 204.507L200.995 201.117C199.401 198.671 197.202 197.206 194.407 196.739C185.131 195.007 176.402 191.737 168.207 186.903C160.009 182.083 152.811 175.978 146.609 168.602L144.877 165.592C142.373 161.241 141.796 157.956 142.973 155.706C144.15 153.456 149.725 151.493 157.802 151.615C212.783 159.332 296.048 178.227 327.342 193.134C328.198 193.5 328.917 194.065 329.486 194.826Z" fill="#00B46E"/>
<path d="M255.883 293.021C256.032 294.565 254.871 296.442 252.871 298.21C241.245 308.4 228.541 316.777 214.737 323.368C200.947 329.971 186.558 334.527 171.586 337.061C166.029 338.113 160.438 338.409 154.812 337.961C149.188 337.527 143.706 336.357 138.367 334.451C133.029 332.558 128.002 329.991 123.274 326.75C118.56 323.521 114.317 319.719 110.523 315.359C107.605 311.248 105.822 306.665 105.184 301.608C105.018 299.62 105.143 297.668 105.572 295.736C106.013 293.803 106.728 291.986 107.72 290.297C108.724 288.606 109.947 287.116 111.405 285.837C112.862 284.558 114.473 283.564 116.246 282.828C124.719 279.375 133.47 277.098 142.51 276.01C151.55 274.921 160.568 275.041 169.579 276.38C192.521 278.7 217.934 282.322 245.136 287.33C251.571 288.23 255.633 290.426 255.883 293.021Z" fill="#C8FAC8"/>
<path d="M174.453 37.647C175.345 39.6039 174.451 41.8432 172.019 43.6435C170.802 44.3498 169.557 44.9648 168.261 45.4999C139.445 65.216 113.901 88.7994 91.6582 116.251L83.2514 126.381C69.757 142.62 60.8664 153.393 48.2632 152.636C45.5256 151.996 42.9052 151.013 40.3967 149.675C37.9054 148.343 35.6007 146.695 33.5054 144.748C31.4046 142.79 29.5875 140.601 28.0312 138.163C26.4749 135.726 25.2302 133.119 24.3143 130.35C20.4964 122.063 18.5543 113.314 18.4996 104.097C18.8954 83.9599 31.673 64.8839 57.843 49.5611C66.0625 44.7373 74.6436 40.7387 83.58 37.5835C92.5225 34.4102 101.662 32.1433 111.011 30.7469C120.349 29.3563 129.743 28.8813 139.172 29.3031C148.607 29.7372 157.913 31.0587 167.12 33.2983C172.271 34.5299 174.008 36.6686 174.453 37.647Z" fill="#C8FAC8"/>
</svg>
