<svg width="142" height="122" viewBox="0 0 142 122" fill="none" xmlns="http://www.w3.org/2000/svg">
<path d="M121.875 60.9985C121.875 94.6914 94.5928 122 60.9388 122C27.2817 122 0 94.6914 0 60.9985C0 27.3086 27.2817 0 60.9388 0C94.5928 0 121.875 27.3086 121.875 60.9985Z" fill="#EDF4E0"/>
<path d="M60.9388 0C27.2817 0 0 27.3086 0 60.9985C0 94.6914 27.2817 122 60.9388 122C94.5928 122 121.875 94.6914 121.875 60.9985C121.875 27.3086 94.5928 0 60.9388 0ZM60.9388 12.1979C87.8202 12.1979 109.686 34.0932 109.686 60.9985C109.686 87.9038 87.8202 109.799 60.9388 109.799C34.0574 109.799 12.186 87.9038 12.186 60.9985C12.186 34.0932 34.0574 12.1979 60.9388 12.1979Z" fill="#00B46E"/>
<path d="M60.9359 24.3989C40.7464 24.3989 24.375 40.7853 24.375 60.9986C24.375 81.212 40.7464 97.5983 60.9359 97.5983C81.1313 97.5983 97.4997 81.212 97.4997 60.9986C97.4997 40.7853 81.1313 24.3989 60.9359 24.3989ZM60.9359 36.5998C74.3766 36.5998 85.3138 47.546 85.3138 60.9986C85.3138 74.4513 74.3766 85.4004 60.9359 85.4004C47.4981 85.4004 36.561 74.4513 36.561 60.9986C36.561 47.546 47.4981 36.5998 60.9359 36.5998Z" fill="#00B46E"/>
<path d="M73.1247 60.9987C73.1247 67.7355 67.6695 73.1996 60.9357 73.1996C54.2079 73.1996 48.7498 67.7355 48.7498 60.9987C48.7498 54.2619 54.2079 48.8008 60.9357 48.8008C67.6695 48.8008 73.1247 54.2619 73.1247 60.9987Z" fill="#00B46E"/>
<path d="M128.722 22.3886C132.893 29.6183 151.708 26.5621 135.196 36.1041C118.681 45.6491 101.918 47.5223 97.7448 40.2926C93.5773 33.0629 103.579 19.4638 120.088 9.9188C136.603 0.376771 124.552 15.1589 128.722 22.3886Z" fill="#508278"/>
<path d="M60.9388 64.001C60.0963 64.001 59.2807 63.5648 58.8267 62.7821C58.1515 61.614 58.5518 60.1232 59.7199 59.4481L129.373 19.1947C130.535 18.5165 132.026 18.9198 132.704 20.0879C133.376 21.256 132.976 22.7468 131.811 23.422L62.1577 63.6784C61.7723 63.8964 61.3541 64.001 60.9388 64.001Z" fill="#50616C"/>
</svg>
