<svg xmlns="http://www.w3.org/2000/svg" width="182" height="179" fill="none" viewBox="0 0 182 179"><path fill="#00B46E" d="M129.214 47.5H4.28523C2.33263 47.5 0.749512 45.9049 0.749512 43.9375V33.25C0.749512 25.3798 7.08139 19 14.8924 19H29.0352V3.5625C29.0352 1.59511 30.6183 0 32.5709 0H44.3567C46.3093 0 47.8924 1.59511 47.8924 3.5625V19H85.6067V3.5625C85.6067 1.59511 87.1898 0 89.1424 0H100.928C102.881 0 104.464 1.59511 104.464 3.5625V19H118.607C126.418 19 132.75 25.3798 132.75 33.25V43.9375C132.75 45.9049 131.166 47.5 129.214 47.5ZM4.28523 57H129.214C131.166 57 132.75 58.5951 132.75 60.5625V137.75C132.75 145.62 126.418 152 118.607 152H14.8924C7.08139 152 0.749512 145.62 0.749512 137.75V60.5625C0.749512 58.5951 2.33263 57 4.28523 57ZM102.489 85.4843L94.1887 77.0536C92.8136 75.6568 90.5749 75.6476 89.1886 77.0334L57.9456 108.26L44.3979 94.4992C43.0228 93.1024 40.7838 93.0932 39.3975 94.479L31.0306 102.842C29.6443 104.227 29.6351 106.483 31.0105 107.88L55.3483 132.6C56.7234 133.997 58.9621 134.006 60.3484 132.621L102.468 90.5222C103.855 89.1367 103.864 86.8811 102.489 85.4843Z"/><path fill="#EDF4E0" d="M167.157 135.999C167.157 159.75 147.925 179 124.202 179C100.477 179 81.2451 159.75 81.2451 135.999C81.2451 112.25 100.477 93 124.202 93C147.925 93 167.157 112.25 167.157 135.999Z"/><path fill="#00B46E" d="M124.202 93C100.477 93 81.2451 112.25 81.2451 135.999C81.2451 159.75 100.477 179 124.202 179C147.925 179 167.157 159.75 167.157 135.999C167.157 112.25 147.925 93 124.202 93ZM124.202 101.599C143.151 101.599 158.564 117.033 158.564 135.999C158.564 154.965 143.151 170.399 124.202 170.399C105.253 170.399 89.8352 154.965 89.8352 135.999C89.8352 117.033 105.253 101.599 124.202 101.599Z"/><path fill="#00B46E" d="M124.2 110.199C109.968 110.199 98.4277 121.75 98.4277 135.999C98.4277 150.248 109.968 161.799 124.2 161.799C138.436 161.799 149.975 150.248 149.975 135.999C149.975 121.75 138.436 110.199 124.2 110.199ZM124.2 118.8C133.675 118.8 141.385 126.516 141.385 135.999C141.385 145.482 133.675 153.2 124.2 153.2C114.728 153.2 107.018 145.482 107.018 135.999C107.018 126.516 114.728 118.8 124.2 118.8Z"/><path fill="#00B46E" d="M132.792 135.999C132.792 140.748 128.947 144.6 124.2 144.6C119.457 144.6 115.61 140.748 115.61 135.999C115.61 131.25 119.457 127.4 124.2 127.4C128.947 127.4 132.792 131.25 132.792 135.999Z"/><path fill="#508278" d="M171.983 108.782C174.923 113.878 188.186 111.724 176.547 118.45C164.905 125.179 153.089 126.499 150.147 121.403C147.209 116.306 154.26 106.72 165.897 99.9918C177.539 93.2655 169.043 103.686 171.983 108.782Z"/><path fill="#50616C" d="M124.202 138.115C123.608 138.115 123.033 137.808 122.713 137.256C122.237 136.433 122.519 135.382 123.343 134.906L172.443 106.531C173.262 106.053 174.313 106.337 174.791 107.16C175.265 107.984 174.983 109.035 174.161 109.51L125.061 137.888C124.79 138.042 124.495 138.115 124.202 138.115Z"/></svg>